<?xml version="1.0" encoding="utf-8"?>
<!-- Generator: Adobe Illustrator 16.0.2, SVG Export Plug-In . SVG Version: 6.00 Build 0)  -->
<!DOCTYPE svg PUBLIC "-//W3C//DTD SVG 1.1//EN" "http://www.w3.org/Graphics/SVG/1.1/DTD/svg11.dtd">
<svg version="1.1" id="圖層_1" xmlns="http://www.w3.org/2000/svg" xmlns:xlink="http://www.w3.org/1999/xlink" x="0px" y="0px"
	 width="566.93px" height="566.93px" viewBox="0 0 566.93 566.93" enable-background="new 0 0 566.93 566.93" xml:space="preserve">
<circle fill="#FFFFFF" cx="284.465" cy="284.465" r="216.851"/>
<g>
	<path fill="none" stroke="#579AB6" stroke-width="40" stroke-miterlimit="10" d="M375.591,411.197
		c-24.642,16.619-101.4,2.537-116.647-22.977c-11.608-19.424,25.622-63.891,26.665-86.496
		c1.259-27.298-36.582-80.543-26.665-106.007c10.541-27.064,80.75-53.087,107.958-42.923c32.018,11.961,48.261,93.31,49.427,127.469
		C417.499,314.525,404.012,392.029,375.591,411.197z"/>
</g>
<ellipse fill="#FFFFFF" cx="267.5" cy="237.34" rx="29.5" ry="19.511"/>
<circle fill="#FFFFFF" stroke="#5799B6" stroke-width="20" stroke-miterlimit="10" cx="177.325" cy="291.645" r="38.045"/>
<rect x="287.554" y="131.14" transform="matrix(0.4897 0.8719 -0.8719 0.4897 279.2372 -194.8315)" fill="#579AB6" width="37.023" height="20"/>
<rect x="318.04" y="119.508" transform="matrix(0.4897 0.8719 -0.8719 0.4897 284.6519 -227.3477)" fill="#579AB6" width="37.023" height="20"/>
<rect x="409.948" y="244.753" transform="matrix(0.9967 0.0807 -0.0807 0.9967 21.9632 -33.756)" fill="#579AB6" width="37.024" height="20"/>
<rect x="409.949" y="281.644" transform="matrix(0.9978 -0.0663 0.0663 0.9978 -18.3822 29.0299)" fill="#579AB6" width="37.024" height="20"/>
<rect x="409.948" y="309.875" transform="matrix(0.9967 0.0807 -0.0807 0.9967 27.2155 -33.5382)" fill="#579AB6" width="37.024" height="20"/>
<rect x="401.948" y="339.875" transform="matrix(0.9571 0.2898 -0.2898 0.9571 119.4578 -106.8492)" fill="#579AB6" width="37.025" height="19.999"/>
<rect x="255.976" y="152.177" transform="matrix(0.4897 0.8719 -0.8719 0.4897 281.4651 -156.5649)" fill="#579AB6" width="37.023" height="20"/>
<rect x="238.192" y="315.69" transform="matrix(0.8924 0.4513 -0.4513 0.8924 174.5967 -80.7938)" fill="#579AB6" width="37.023" height="19.999"/>
<rect x="227.956" y="345.69" transform="matrix(0.8924 0.4513 -0.4513 0.8924 187.0332 -72.9464)" fill="#579AB6" width="37.023" height="19.999"/>
</svg>
