<?xml version="1.0" encoding="utf-8"?>
<!-- Generator: Adobe Illustrator 16.0.2, SVG Export Plug-In . SVG Version: 6.00 Build 0)  -->
<!DOCTYPE svg PUBLIC "-//W3C//DTD SVG 1.1//EN" "http://www.w3.org/Graphics/SVG/1.1/DTD/svg11.dtd">
<svg version="1.1" id="圖層_1" xmlns="http://www.w3.org/2000/svg" xmlns:xlink="http://www.w3.org/1999/xlink" x="0px" y="0px"
	 width="340.158px" height="340.158px" viewBox="0 0 340.158 340.158" enable-background="new 0 0 340.158 340.158"
	 xml:space="preserve">
<path fill="#444444" stroke="#FFFFFF" stroke-width="2" stroke-miterlimit="10" d="M180.599,166.875
	c0,0,61.207-119.921,101.737-120.751c40.528-0.831,62.853,74.437,29.777,105.863c-33.089,31.432-48.282,4.52-126.551,40.125
	C165.743,201.157,180.599,166.875,180.599,166.875z"/>
<path fill="#444444" stroke="#FFFFFF" stroke-width="2" stroke-miterlimit="10" d="M148.982,203.306
	c0,0,72.292-0.027,124.857,11.973c36.705,8.373-12.253,69.021-52.3,66.293c-40.039-2.732-27.041-42.34-81.599-52.9
	C117.244,224.292,148.982,203.306,148.982,203.306z"/>
<path fill="#444444" stroke="#FFFFFF" stroke-width="2" stroke-miterlimit="10" d="M168.831,274.466
	c17.646-39.621,9.894-51.223-15.765-62.656c-25.672-11.426-35.451-17.287-53.094,22.334c-17.644,39.615-22.813,78.6,2.849,90.033
	C128.489,335.606,151.185,314.073,168.831,274.466z"/>
<path fill="#444444" stroke="#FFFFFF" stroke-width="2" stroke-miterlimit="10" d="M181.132,172.841
	c0,0,32.443-125.92-6.021-148.875C136.652,1.015,67.55,38.288,69.649,64.286c3.112,38.556,30.264,30.91,50.878,59.55
	c14.58,20.258,19.205,42.901,24.813,56.448C154.86,203.306,181.132,172.841,181.132,172.841z"/>
<path fill="#444444" stroke="#FFFFFF" stroke-width="2" stroke-miterlimit="10" d="M143.806,184.003
	c0,0-73.198-66.335-103.118-64.828c-31.7,1.605-22.53,77.275-7.12,97.1c13.472,17.34,113.959-16.777,113.959-16.777L143.806,184.003
	z"/>
<circle fill="#444444" stroke="#FFFFFF" stroke-width="2" stroke-miterlimit="10" cx="161.196" cy="187.524" r="33.059"/>
<ellipse fill="#444444" cx="72.331" cy="181.234" rx="17.604" ry="10.019"/>
<g id="XMLID_2_">
	<g>
		<path fill="#444444" d="M215.929,203.415c-9.697,0.059-17.629-4.4-17.666-9.943c-0.043-5.523,7.812-10.045,17.554-10.098
			c9.735-0.051,17.632,4.352,17.666,9.889C233.52,198.8,225.677,203.313,215.929,203.415z"/>
	</g>
</g>
<g id="XMLID_1_">
	<g>
		
			<ellipse transform="matrix(0.7823 -0.6229 0.6229 0.7823 -63.3079 102.2845)" fill="#444444" cx="114.676" cy="141.711" rx="10.024" ry="17.604"/>
	</g>
</g>
<path fill="#444444" d="M253.278,124.592c8.016-5.512,17.051-6.289,20.184-1.732c3.143,4.556-0.819,12.718-8.833,18.23
	c-8.017,5.512-17.053,6.291-20.188,1.734C241.313,138.268,245.266,130.104,253.278,124.592z"/>
<ellipse transform="matrix(-0.4477 -0.8942 0.8942 -0.4477 131.9113 254.5832)" fill="#444444" cx="144.577" cy="86.554" rx="17.612" ry="10.015"/>
<path fill="#444444" d="M222.048,234.589c7.711,5.93,11.227,14.289,7.854,18.678c-3.374,4.387-12.354,3.133-20.066-2.797
	c-7.707-5.934-11.225-14.293-7.851-18.678C205.357,227.409,214.343,228.663,222.048,234.589z"/>
</svg>
