<?xml version="1.0" encoding="utf-8"?>
<!-- Generator: Adobe Illustrator 16.0.2, SVG Export Plug-In . SVG Version: 6.00 Build 0)  -->
<!DOCTYPE svg PUBLIC "-//W3C//DTD SVG 1.1//EN" "http://www.w3.org/Graphics/SVG/1.1/DTD/svg11.dtd">
<svg version="1.1" id="圖層_1" xmlns="http://www.w3.org/2000/svg" xmlns:xlink="http://www.w3.org/1999/xlink" x="0px" y="0px"
	 width="1133.859px" height="566.93px" viewBox="0 0 1133.859 566.93" enable-background="new 0 0 1133.859 566.93"
	 xml:space="preserve">
<rect x="0" fill="#599AB9" width="1133.859" height="566.93"/>
<circle fill="#FFFFFF" cx="566.422" cy="282.958" r="214.274"/>
<g>
	<path fill="#599AB9" stroke="#FFFFFF" stroke-width="2" stroke-miterlimit="10" d="M571.619,279.043
		c0,0,46.616-91.335,77.486-91.967c30.869-0.632,47.871,56.693,22.679,80.628c-25.202,23.938-36.773,3.443-96.384,30.56
		C560.305,305.152,571.619,279.043,571.619,279.043z"/>
	<path fill="#599AB9" stroke="#FFFFFF" stroke-width="2" stroke-miterlimit="10" d="M547.539,306.79c0,0,55.059-0.022,95.093,9.118
		c27.956,6.377-9.331,52.57-39.832,50.492c-30.494-2.082-20.595-32.248-62.149-40.291
		C523.367,322.773,547.539,306.79,547.539,306.79z"/>
	<path fill="#599AB9" stroke="#FFFFFF" stroke-width="2" stroke-miterlimit="10" d="M562.656,360.986
		c13.441-30.174,7.535-39.01-12.006-47.719c-19.551-8.703-27-13.166-40.436,17.008c-13.437,30.172-17.375,59.865,2.17,68.574
		C531.932,407.553,549.216,391.152,562.656,360.986z"/>
	<path fill="#599AB9" stroke="#FFFFFF" stroke-width="2" stroke-miterlimit="10" d="M567.549,283.587
		c0,0,24.71-95.904-4.587-113.386c-29.291-17.481-81.921,10.908-80.322,30.708c2.37,29.366,23.048,23.542,38.75,45.354
		c11.104,15.429,14.627,32.675,18.898,42.993C547.539,306.79,567.549,283.587,567.549,283.587z"/>
	<path fill="#599AB9" stroke="#FFFFFF" stroke-width="2" stroke-miterlimit="10" d="M543.597,292.088
		c0,0-55.749-50.522-78.537-49.374c-24.143,1.222-17.161,58.853-5.423,73.953c10.259,13.207,86.794-12.778,86.794-12.778
		L543.597,292.088z"/>
	<circle fill="#599AB9" stroke="#FFFFFF" stroke-width="2" stroke-miterlimit="10" cx="556.841" cy="294.77" r="25.178"/>
	<ellipse fill="#FFFFFF" cx="489.159" cy="289.979" rx="13.408" ry="7.631"/>
	<g id="XMLID_2_">
		<g>
			<path fill="#599AB9" d="M598.527,306.873c-7.384,0.044-13.424-3.354-13.454-7.574c-0.033-4.207,5.948-7.65,13.368-7.689
				c7.416-0.039,13.429,3.313,13.455,7.529C611.924,303.357,605.951,306.795,598.527,306.873z"/>
		</g>
	</g>
	<g id="XMLID_1_">
		<g>
			
				<ellipse transform="matrix(0.7823 -0.6229 0.6229 0.7823 -50.2605 382.008)" fill="#599AB9" cx="521.403" cy="262.911" rx="7.634" ry="13.408"/>
		</g>
	</g>
	<path fill="#FFFFFF" d="M626.974,246.84c6.104-4.199,12.986-4.79,15.372-1.32c2.391,3.47-0.625,9.686-6.727,13.885
		c-6.106,4.198-12.988,4.791-15.375,1.321C617.86,257.256,620.871,251.038,626.974,246.84z"/>
	
		<ellipse transform="matrix(-0.4477 -0.8942 0.8942 -0.4477 586.5229 798.0137)" fill="#FFFFFF" cx="539.713" cy="217.87" rx="13.414" ry="7.628"/>
	<path fill="#FFFFFF" d="M603.187,330.615c5.874,4.516,8.55,10.883,5.982,14.224c-2.569,3.341-9.409,2.386-15.283-2.129
		c-5.869-4.519-8.549-10.886-5.979-14.224C590.476,325.146,597.32,326.101,603.187,330.615z"/>
</g>
</svg>
