<?xml version="1.0" encoding="utf-8"?>
<!-- Generator: Adobe Illustrator 16.0.2, SVG Export Plug-In . SVG Version: 6.00 Build 0)  -->
<!DOCTYPE svg PUBLIC "-//W3C//DTD SVG 1.1//EN" "http://www.w3.org/Graphics/SVG/1.1/DTD/svg11.dtd">
<svg version="1.1" id="圖層_1" xmlns="http://www.w3.org/2000/svg" xmlns:xlink="http://www.w3.org/1999/xlink" x="0px" y="0px"
	 width="1133.858px" height="566.93px" viewBox="-340.157 -56.693 1133.858 566.93"
	 enable-background="new -340.157 -56.693 1133.858 566.93" xml:space="preserve">
<circle fill="#FFFFFF" cx="225.765" cy="226.515" r="214.085"/>
<circle fill="none" cx="225.764" cy="226.515" r="214.085"/>
<circle fill="none" cx="225.764" cy="226.515" r="214.085"/>
<path fill="#599AB9" d="M348.84,322.912l-92.732-143.723l0,0V86.474h1.757c3.313,0,6-2.687,6-6s-2.687-6-6-6h-69.667
	c-3.313,0-6,2.687-6,6s2.688,6,6,6h1.757v93.965l0,0l-87.471,143.599l-0.238,0.393c-2.423,4.061-3.818,8.805-3.818,13.874
	c0,14.98,12.145,27.124,27.125,27.124H326.51c14.98,0,27.125-12.144,27.125-27.124C353.635,333.218,348.84,322.912,348.84,322.912z"
	/>
</svg>
