<?xml version="1.0" encoding="utf-8"?>
<!-- Generator: Adobe Illustrator 16.0.2, SVG Export Plug-In . SVG Version: 6.00 Build 0)  -->
<!DOCTYPE svg PUBLIC "-//W3C//DTD SVG 1.1//EN" "http://www.w3.org/Graphics/SVG/1.1/DTD/svg11.dtd">
<svg version="1.1" id="圖層_1" xmlns="http://www.w3.org/2000/svg" xmlns:xlink="http://www.w3.org/1999/xlink" x="0px" y="0px"
	 width="340.158px" height="340.158px" viewBox="0 0 340.158 340.158" enable-background="new 0 0 340.158 340.158"
	 xml:space="preserve">
<path fill="#444444" d="M292.885,273.039l-92.728-143.724l0,0V36.6h1.756c3.313,0,6-2.687,6-6s-2.689-6-6-6h-69.668
	c-3.313,0-6,2.688-6,6c0,3.313,2.688,6,6,6h1.758v93.965l0,0L46.532,274.166l-0.238,0.394c-2.424,4.063-3.818,8.805-3.818,13.873
	c0,14.98,12.146,27.125,27.125,27.125h200.956c14.98,0,27.125-12.145,27.125-27.125C297.68,283.345,292.885,273.039,292.885,273.039
	z"/>
</svg>
