<?xml version="1.0" encoding="utf-8"?>
<!-- Generator: Adobe Illustrator 16.0.2, SVG Export Plug-In . SVG Version: 6.00 Build 0)  -->
<!DOCTYPE svg PUBLIC "-//W3C//DTD SVG 1.1//EN" "http://www.w3.org/Graphics/SVG/1.1/DTD/svg11.dtd">
<svg version="1.1" id="圖層_1" xmlns="http://www.w3.org/2000/svg" xmlns:xlink="http://www.w3.org/1999/xlink" x="0px" y="0px"
	 width="1133.859px" height="566.93px" viewBox="-340.157 -56.693 1133.859 566.93"
	 enable-background="new -340.157 -56.693 1133.859 566.93" xml:space="preserve">
<circle fill="#FFFFFF" cx="225.765" cy="226.515" r="214.085"/>
<circle fill="none" cx="225.764" cy="226.515" r="214.085"/>
<circle fill="none" cx="225.764" cy="226.515" r="214.085"/>
<g>
	<path fill="#599AB9" d="M-339.157-56.193v566.43H793.7v-566.43H-339.157z M226.765,440.6c-118.235,0-214.084-95.85-214.084-214.084
		c0-118.235,95.849-214.084,214.084-214.084c118.236,0,214.086,95.849,214.086,214.084C440.851,344.75,345.001,440.6,226.765,440.6z
		"/>
	<path fill="#599AB9" d="M125.552,339.429"/>
	<path fill="#599AB9" d="M98.427,312.305"/>
</g>
<path fill="#599AB9" d="M348.84,322.912l-92.732-143.723l0,0V86.474h1.757c3.313,0,6-2.687,6-6s-2.687-6-6-6h-69.667
	c-3.313,0-6,2.687-6,6s2.688,6,6,6h1.758v93.965l0,0l-87.472,143.599l-0.237,0.393c-2.424,4.062-3.818,8.806-3.818,13.874
	c0,14.98,12.145,27.124,27.125,27.124H326.51c14.98,0,27.125-12.144,27.125-27.124C353.635,333.218,348.84,322.912,348.84,322.912z"
	/>
</svg>
