<?xml version="1.0" encoding="utf-8"?>
<!-- Generator: Adobe Illustrator 16.0.2, SVG Export Plug-In . SVG Version: 6.00 Build 0)  -->
<!DOCTYPE svg PUBLIC "-//W3C//DTD SVG 1.1//EN" "http://www.w3.org/Graphics/SVG/1.1/DTD/svg11.dtd">
<svg version="1.1" id="圖層_1" xmlns="http://www.w3.org/2000/svg" xmlns:xlink="http://www.w3.org/1999/xlink" x="0px" y="0px"
	 width="1133.859px" height="566.93px" viewBox="0 0 1133.859 566.93" enable-background="new 0 0 1133.859 566.93"
	 xml:space="preserve">
<circle fill="#FFFFFF" cx="566.93" cy="283.466" r="214.274"/>
<path fill="#599AB9" d="M559.924,393.324c-60.944,0-110.351-49.406-110.351-110.352s49.407-110.354,110.351-110.354
	c19.928,0,38.613,5.273,54.769,14.543l13.72-24.01c-20.181-11.565-43.565-18.17-68.486-18.17
	c-76.196,0-137.99,61.796-137.99,137.991c0,76.194,61.795,137.989,137.99,137.989c50.685,0,94.99-27.324,118.971-68.06
	l-23.811-14.002C635.895,371.473,600.461,393.324,559.924,393.324z"/>
<path fill="#599AB9" stroke="#599AB9" stroke-miterlimit="10" d="M655.086,338.902l-20.81-12.225
	c4.897-8.285,8.413-17.468,10.308-27.229c1.031-5.337,1.6-10.838,1.6-16.479c0-21.546-7.926-41.228-20.982-56.338
	c-6.379-7.376-13.957-13.682-22.473-18.551l11.964-20.919l13.72-24.01l12.303-21.543c48.979,28.034,82.007,80.843,82.007,141.363
	c0,30.104-8.163,58.31-22.422,82.486l-21.401-12.557L655.086,338.902z"/>
</svg>
