<?xml version="1.0" encoding="utf-8"?>
<!-- Generator: Adobe Illustrator 16.0.2, SVG Export Plug-In . SVG Version: 6.00 Build 0)  -->
<!DOCTYPE svg PUBLIC "-//W3C//DTD SVG 1.1//EN" "http://www.w3.org/Graphics/SVG/1.1/DTD/svg11.dtd">
<svg version="1.1" id="圖層_1" xmlns="http://www.w3.org/2000/svg" xmlns:xlink="http://www.w3.org/1999/xlink" x="0px" y="0px"
	 width="1133.859px" height="566.93px" viewBox="-366.929 -183.465 1133.859 566.93"
	 enable-background="new -366.929 -183.465 1133.859 566.93" xml:space="preserve">
<path fill="#599AB9" d="M-366.93-183.465v566.93H766.93v-566.93H-366.93z M199.492,313.767
	c-118.341,0-214.273-95.935-214.273-214.274c0-118.337,95.932-214.273,214.273-214.273c118.34,0,214.274,95.934,214.274,214.273
	S317.832,313.767,199.492,313.767z"/>
<path fill="#599AB9" d="M199.489,210.352c-60.945,0-110.352-49.406-110.352-110.352c0-60.945,49.407-110.354,110.352-110.354
	c19.927,0,38.612,5.273,54.768,14.543l13.72-24.01c-20.181-11.565-43.566-18.17-68.487-18.17C123.294-37.991,61.5,23.805,61.5,100
	c0,76.195,61.795,137.99,137.99,137.99c50.685,0,94.99-27.325,118.971-68.06l-23.81-14.002
	C275.459,188.5,240.025,210.352,199.489,210.352z"/>
<path fill="#599AB9" stroke="#599AB9" stroke-miterlimit="10" d="M294.65,155.929l-20.809-12.225
	c4.897-8.285,8.413-17.467,10.307-27.228c1.032-5.337,1.6-10.838,1.6-16.479c0-21.546-7.926-41.227-20.982-56.338
	c-6.379-7.376-13.958-13.681-22.473-18.55l11.964-20.919l13.72-24.01l12.302-21.543C329.259-13.329,362.286,39.48,362.286,100
	c0,30.104-8.163,58.31-22.422,82.487l-21.401-12.557L294.65,155.929z"/>
</svg>
