<?xml version="1.0" encoding="utf-8"?>
<!-- Generated by IcoMoon.io -->
<!DOCTYPE svg PUBLIC "-//W3C//DTD SVG 1.1//EN" "http://www.w3.org/Graphics/SVG/1.1/DTD/svg11.dtd">
<svg version="1.1" xmlns="http://www.w3.org/2000/svg" xmlns:xlink="http://www.w3.org/1999/xlink" width="752" height="124" viewBox="0 0 752 124">
<svg id="icon-exit" width="32" height="32" viewBox="0 0 32 32" x="0" y="0">
<path fill="#444" d="M24 20v-4h-10v-4h10v-4l6 6zM22 18v8h-10v6l-12-6v-26h22v10h-2v-8h-16l8 4v18h8v-6z"></path>
</svg>
<svg id="icon-enter" width="32" height="32" viewBox="0 0 32 32" x="48" y="0">
<path fill="#444" d="M12 16h-10v-4h10v-4l6 6-6 6zM32 0v26l-12 6v-6h-12v-8h2v6h10v-18l8-4h-18v8h-2v-10z"></path>
</svg>
<svg id="icon-arabidopsis-icon" width="32" height="32" viewBox="0 0 32 32" x="96" y="0">
<path fill="#444" d="M16.99 15.699c0 0 5.758-11.281 9.571-11.36s5.913 7.003 2.801 9.959c-3.113 2.957-4.542 0.425-11.905 3.775-1.864 0.851-0.467-2.374-0.467-2.374z"></path>
<path fill="#444" d="M14.015 19.126c0 0 6.801-0.003 11.746 1.126 3.453 0.788-1.153 6.493-4.92 6.236s-2.544-3.983-7.676-4.977c-2.135-0.412 0.851-2.386 0.851-2.386z"></path>
<path fill="#444" d="M15.883 25.82c1.66-3.727 0.931-4.819-1.483-5.894-2.415-1.075-3.335-1.626-4.995 2.101s-2.146 7.394 0.268 8.47c2.415 1.075 4.55-0.951 6.21-4.677z"></path>
<path fill="#444" d="M17.040 16.26c0 0 3.052-11.846-0.566-14.005s-10.119 1.347-9.921 3.793c0.293 3.627 2.847 2.908 4.786 5.602 1.372 1.906 1.807 4.036 2.334 5.31 0.896 2.166 3.367-0.7 3.367-0.7z"></path>
<path fill="#444" d="M13.528 17.31c0 0-6.886-6.24-9.701-6.099-2.982 0.151-2.119 7.27-0.67 9.135 1.267 1.631 10.721-1.578 10.721-1.578l-0.35-1.458z"></path>
<path fill="#444" d="M18.274 17.641c0 1.718-1.392 3.11-3.11 3.11s-3.11-1.392-3.11-3.11c0-1.718 1.392-3.11 3.11-3.11s3.11 1.392 3.11 3.11z"></path>
<path fill="#444" d="M8.461 17.049c0 0.521-0.741 0.943-1.656 0.943s-1.656-0.422-1.656-0.943c0-0.521 0.741-0.943 1.656-0.943s1.656 0.422 1.656 0.943z"></path>
<path fill="#444" d="M20.313 19.136c-0.912 0.006-1.658-0.414-1.662-0.935-0.004-0.52 0.735-0.945 1.651-0.95s1.659 0.409 1.662 0.93c0.003 0.521-0.734 0.945-1.651 0.955z"></path>
<path fill="#444" d="M11.526 12.744c0.57 0.716 0.701 1.559 0.294 1.883s-1.2 0.007-1.769-0.708c-0.57-0.716-0.701-1.559-0.294-1.883s1.2-0.007 1.769 0.708z"></path>
<path fill="#444" d="M23.827 11.721c0.754-0.519 1.604-0.592 1.899-0.163s-0.077 1.196-0.831 1.715c-0.754 0.519-1.604 0.592-1.899 0.163s0.078-1.197 0.831-1.715z"></path>
<path fill="#444" d="M12.86 6.661c0.465-0.233 1.175 0.242 1.584 1.060s0.365 1.67-0.101 1.903c-0.465 0.233-1.175-0.242-1.584-1.060s-0.365-1.67 0.101-1.903z"></path>
<path fill="#444" d="M20.889 22.069c0.725 0.558 1.056 1.344 0.739 1.757s-1.162 0.295-1.888-0.263c-0.725-0.558-1.056-1.345-0.739-1.757s1.163-0.294 1.887 0.263z"></path>
</svg>
<svg id="icon-caculator-icon" width="32" height="32" viewBox="0 0 32 32" x="144" y="0">
<path fill="#444" d="M27.553 25.686l-8.723-13.521v-8.722h0.165c0.312 0 0.564-0.253 0.564-0.564s-0.253-0.564-0.564-0.564h-6.554c-0.312 0-0.564 0.253-0.564 0.564s0.253 0.564 0.564 0.564h0.165v8.84l-8.251 13.546c-0.228 0.382-0.359 0.828-0.359 1.305 0 1.409 1.143 2.552 2.552 2.552h18.905c1.409 0 2.552-1.143 2.552-2.552-0-0.479-0.451-1.448-0.451-1.448z"></path>
</svg>
<svg id="icon-clone-icon" width="32" height="32" viewBox="0 0 32 32" x="192" y="0">
<path fill="#444" d="M14.833 26.54c-5.733 0-10.381-4.648-10.381-10.381s4.648-10.381 10.381-10.381c1.875 0 3.632 0.496 5.152 1.368l1.291-2.259c-1.899-1.088-4.098-1.709-6.443-1.709-7.168 0-12.981 5.813-12.981 12.981s5.813 12.981 12.981 12.981c4.768 0 8.936-2.57 11.192-6.403l-2.24-1.317c-1.805 3.064-5.139 5.12-8.952 5.12z"></path>
<path fill="#444" d="M23.785 21.42l-1.958-1.15c0.461-0.779 0.791-1.643 0.97-2.562 0.097-0.502 0.151-1.020 0.151-1.55 0-2.027-0.746-3.879-1.974-5.3-0.6-0.694-1.313-1.287-2.114-1.745l3.574-6.253c4.608 2.637 7.715 7.605 7.715 13.299 0 2.832-0.768 5.485-2.109 7.76l-4.254-2.498z"></path>
</svg>
<svg id="icon-recycle" width="32" height="32" viewBox="0 0 32 32" x="240" y="0">
<path fill="#444" d="M14.929 20.875l-0.268 6.571-0.036 0.393-7.5-0.518q-0.643-0.054-1.196-0.563t-0.839-1.17q-0.196-0.482-0.259-0.982t0.071-1.161 0.214-0.982 0.384-1.143 0.339-0.946q1.393 0.214 9.089 0.5zM8.018 10.411l3.214 6.768-2.625-1.643q-1.125 1.286-1.991 2.58t-1.295 2.232-0.705 1.688-0.33 1.125l-0.071 0.375-3.393-6.375q-0.304-0.464-0.321-1t0.107-0.839l0.143-0.321q0.625-1.125 2.036-3.357l-2.5-1.536zM30 19.643l-3.357 6.411q-0.214 0.518-0.652 0.83t-0.777 0.366l-0.321 0.071q-1.268 0.125-3.911 0.214l0.143 2.929-4.107-6.554 3.768-6.464 0.125 3.089q3.036 0.286 5.054 0.089t3.036-0.589zM15.982 3.143q-0.839 1.125-4.732 7.768l-5.661-3.339-0.339-0.214 4.018-6.357q0.357-0.554 1.071-0.804t1.429-0.179q0.429 0.036 0.866 0.214t0.75 0.375 0.741 0.589 0.643 0.616 0.643 0.705 0.571 0.625zM27.679 8.625l3.786 6.482q0.321 0.661 0.223 1.357t-0.491 1.321q-0.232 0.357-0.589 0.661t-0.679 0.5-0.866 0.393-0.839 0.286-0.92 0.25-0.821 0.214q-0.607-1.286-4.732-7.786l5.589-3.482zM25.125 4.589l2.536-1.482-3.929 6.661-7.482-0.357 2.696-1.536q-0.607-1.589-1.339-2.964t-1.348-2.205-1.152-1.429-0.839-0.83l-0.304-0.232 7.232 0.018q0.554-0.054 1.036 0.188t0.696 0.509l0.196 0.268q0.696 1.089 2 3.393z"></path>
</svg>
<svg id="icon-user" width="22" height="28" viewBox="0 0 22 28" x="0" y="48">
<path fill="#444" d="M22 21.953q0 1.875-1.141 2.961t-3.031 1.086h-13.656q-1.891 0-3.031-1.086t-1.141-2.961q0-0.828 0.055-1.617t0.219-1.703 0.414-1.695 0.672-1.523 0.969-1.266 1.336-0.836 1.742-0.313q0.141 0 0.656 0.336t1.164 0.75 1.687 0.75 2.086 0.336 2.086-0.336 1.687-0.75 1.164-0.75 0.656-0.336q0.953 0 1.742 0.313t1.336 0.836 0.969 1.266 0.672 1.523 0.414 1.695 0.219 1.703 0.055 1.617zM17 8q0 2.484-1.758 4.242t-4.242 1.758-4.242-1.758-1.758-4.242 1.758-4.242 4.242-1.758 4.242 1.758 1.758 4.242z"></path>
</svg>
<svg id="icon-cog" width="24" height="28" viewBox="0 0 24 28" x="44" y="48">
<path fill="#444" d="M16 14q0-1.656-1.172-2.828t-2.828-1.172-2.828 1.172-1.172 2.828 1.172 2.828 2.828 1.172 2.828-1.172 1.172-2.828zM24 12.297v3.469q0 0.187-0.125 0.359t-0.313 0.203l-2.891 0.438q-0.297 0.844-0.609 1.422 0.547 0.781 1.672 2.156 0.156 0.187 0.156 0.391t-0.141 0.359q-0.422 0.578-1.547 1.687t-1.469 1.109q-0.187 0-0.406-0.141l-2.156-1.687q-0.688 0.359-1.422 0.594-0.25 2.125-0.453 2.906-0.109 0.438-0.562 0.438h-3.469q-0.219 0-0.383-0.133t-0.18-0.336l-0.438-2.875q-0.766-0.25-1.406-0.578l-2.203 1.672q-0.156 0.141-0.391 0.141-0.219 0-0.391-0.172-1.969-1.781-2.578-2.625-0.109-0.156-0.109-0.359 0-0.187 0.125-0.359 0.234-0.328 0.797-1.039t0.844-1.102q-0.422-0.781-0.641-1.547l-2.859-0.422q-0.203-0.031-0.328-0.195t-0.125-0.367v-3.469q0-0.187 0.125-0.359t0.297-0.203l2.906-0.438q0.219-0.719 0.609-1.437-0.625-0.891-1.672-2.156-0.156-0.187-0.156-0.375 0-0.156 0.141-0.359 0.406-0.562 1.539-1.68t1.477-1.117q0.203 0 0.406 0.156l2.156 1.672q0.688-0.359 1.422-0.594 0.25-2.125 0.453-2.906 0.109-0.437 0.562-0.437h3.469q0.219 0 0.383 0.133t0.18 0.336l0.438 2.875q0.766 0.25 1.406 0.578l2.219-1.672q0.141-0.141 0.375-0.141 0.203 0 0.391 0.156 2.016 1.859 2.578 2.656 0.109 0.125 0.109 0.344 0 0.187-0.125 0.359-0.234 0.328-0.797 1.039t-0.844 1.102q0.406 0.781 0.641 1.531l2.859 0.438q0.203 0.031 0.328 0.195t0.125 0.367z"></path>
</svg>
<svg id="icon-pencil" width="24" height="28" viewBox="0 0 24 28" x="88" y="48">
<path fill="#444" d="M5.672 24l1.422-1.422-3.672-3.672-1.422 1.422v1.672h2v2h1.672zM13.844 9.5q0-0.344-0.344-0.344-0.156 0-0.266 0.109l-8.469 8.469q-0.109 0.109-0.109 0.266 0 0.344 0.344 0.344 0.156 0 0.266-0.109l8.469-8.469q0.109-0.109 0.109-0.266zM13 6.5l6.5 6.5-13 13h-6.5v-6.5zM23.672 8q0 0.828-0.578 1.406l-2.594 2.594-6.5-6.5 2.594-2.578q0.562-0.594 1.406-0.594 0.828 0 1.422 0.594l3.672 3.656q0.578 0.609 0.578 1.422z"></path>
</svg>
<svg id="icon-facebook-square" width="24" height="28" viewBox="0 0 24 28" x="132" y="48">
<path fill="#444" d="M19.5 2q1.859 0 3.18 1.32t1.32 3.18v15q0 1.859-1.32 3.18t-3.18 1.32h-2.938v-9.297h3.109l0.469-3.625h-3.578v-2.312q0-0.875 0.367-1.313t1.43-0.438l1.906-0.016v-3.234q-0.984-0.141-2.781-0.141-2.125 0-3.398 1.25t-1.273 3.531v2.672h-3.125v3.625h3.125v9.297h-8.313q-1.859 0-3.18-1.32t-1.32-3.18v-15q0-1.859 1.32-3.18t3.18-1.32h15z"></path>
</svg>
<svg id="icon-credit-card" width="30" height="28" viewBox="0 0 30 28" x="176" y="48">
<path fill="#444" d="M27.5 2q1.031 0 1.766 0.734t0.734 1.766v19q0 1.031-0.734 1.766t-1.766 0.734h-25q-1.031 0-1.766-0.734t-0.734-1.766v-19q0-1.031 0.734-1.766t1.766-0.734h25zM2.5 4q-0.203 0-0.352 0.148t-0.148 0.352v3.5h26v-3.5q0-0.203-0.148-0.352t-0.352-0.148h-25zM27.5 24q0.203 0 0.352-0.148t0.148-0.352v-9.5h-26v9.5q0 0.203 0.148 0.352t0.352 0.148h25zM4 22v-2h4v2h-4zM10 22v-2h6v2h-6z"></path>
</svg>
<svg id="icon-comment-o" width="28" height="28" viewBox="0 0 28 28" x="220" y="48">
<path fill="#444" d="M14 6q-3.187 0-5.961 1.086t-4.406 2.93-1.633 3.984q0 1.75 1.117 3.336t3.148 2.742l1.359 0.781-0.422 1.5q-0.375 1.422-1.094 2.688 2.375-0.984 4.297-2.672l0.672-0.594 0.891 0.094q1.078 0.125 2.031 0.125 3.187 0 5.961-1.086t4.406-2.93 1.633-3.984-1.633-3.984-4.406-2.93-5.961-1.086zM28 14q0 2.719-1.875 5.023t-5.094 3.641-7.031 1.336q-1.094 0-2.266-0.125-3.094 2.734-7.187 3.781-0.766 0.219-1.781 0.344h-0.078q-0.234 0-0.422-0.164t-0.25-0.43v-0.016q-0.047-0.063-0.008-0.187t0.031-0.156 0.070-0.148l0.094-0.141t0.109-0.133 0.125-0.141q0.109-0.125 0.484-0.539t0.539-0.594 0.484-0.617 0.508-0.797 0.422-0.922 0.406-1.188q-2.453-1.391-3.867-3.437t-1.414-4.391q0-2.719 1.875-5.023t5.094-3.641 7.031-1.336 7.031 1.336 5.094 3.641 1.875 5.023z"></path>
</svg>
<svg id="icon-calculator" width="26" height="28" viewBox="0 0 26 28" x="264" y="48">
<path fill="#444" d="M6 24q0-0.828-0.586-1.414t-1.414-0.586-1.414 0.586-0.586 1.414 0.586 1.414 1.414 0.586 1.414-0.586 0.586-1.414zM12 24q0-0.828-0.586-1.414t-1.414-0.586-1.414 0.586-0.586 1.414 0.586 1.414 1.414 0.586 1.414-0.586 0.586-1.414zM6 18q0-0.828-0.586-1.414t-1.414-0.586-1.414 0.586-0.586 1.414 0.586 1.414 1.414 0.586 1.414-0.586 0.586-1.414zM18 24q0-0.828-0.586-1.414t-1.414-0.586-1.414 0.586-0.586 1.414 0.586 1.414 1.414 0.586 1.414-0.586 0.586-1.414zM12 18q0-0.828-0.586-1.414t-1.414-0.586-1.414 0.586-0.586 1.414 0.586 1.414 1.414 0.586 1.414-0.586 0.586-1.414zM6 12q0-0.828-0.586-1.414t-1.414-0.586-1.414 0.586-0.586 1.414 0.586 1.414 1.414 0.586 1.414-0.586 0.586-1.414zM18 18q0-0.828-0.586-1.414t-1.414-0.586-1.414 0.586-0.586 1.414 0.586 1.414 1.414 0.586 1.414-0.586 0.586-1.414zM12 12q0-0.828-0.586-1.414t-1.414-0.586-1.414 0.586-0.586 1.414 0.586 1.414 1.414 0.586 1.414-0.586 0.586-1.414zM24 24v-6q0-0.812-0.594-1.406t-1.406-0.594-1.406 0.594-0.594 1.406v6q0 0.812 0.594 1.406t1.406 0.594 1.406-0.594 0.594-1.406zM18 12q0-0.828-0.586-1.414t-1.414-0.586-1.414 0.586-0.586 1.414 0.586 1.414 1.414 0.586 1.414-0.586 0.586-1.414zM24 7v-4q0-0.406-0.297-0.703t-0.703-0.297h-20q-0.406 0-0.703 0.297t-0.297 0.703v4q0 0.406 0.297 0.703t0.703 0.297h20q0.406 0 0.703-0.297t0.297-0.703zM24 12q0-0.828-0.586-1.414t-1.414-0.586-1.414 0.586-0.586 1.414 0.586 1.414 1.414 0.586 1.414-0.586 0.586-1.414zM26 2v24q0 0.812-0.594 1.406t-1.406 0.594h-22q-0.812 0-1.406-0.594t-0.594-1.406v-24q0-0.812 0.594-1.406t1.406-0.594h22q0.812 0 1.406 0.594t0.594 1.406z"></path>
</svg>
<svg id="icon-key3" width="32" height="32" viewBox="0 0 32 32" x="0" y="92">
<path fill="#444" d="M14.683 14.698c0.117 0 0.235-0.041 0.33-0.124l11.317-9.922-0.66-0.752-11.317 9.921c-0.208 0.182-0.229 0.498-0.046 0.706 0.099 0.113 0.237 0.171 0.376 0.171zM10.188 32c6.142 0 9.812-4.83 9.812-9.5 0-1.346-0.322-2.829-0.798-3.792l4.522-2.261c0.169-0.085 0.276-0.258 0.276-0.447v-4h3c0.011 0 0.102-0.006 0.113-0.006 0.666-0.045 0.865-0.257 0.887-0.994v-4h3c0.129 0 0.218 0.014 0.278 0.023 0.121 0.019 0.347 0.054 0.543-0.122 0.202-0.18 0.193-0.408 0.185-0.609-0.002-0.072-0.006-0.167-0.006-0.292v-4.531c0-0.81-0.659-1.469-1.469-1.469h-3.875c-0.354 0-0.698 0.129-0.969 0.364l-13.187 11.56c-0.649-0.13-1.63-0.299-2.313-0.299-5.617 0-10.187 4.57-10.187 10.187s4.57 10.188 10.188 10.188zM10.188 12.625c0.501 0 1.359 0.12 2.354 0.328 0.155 0.034 0.314-0.010 0.432-0.113l13.371-11.722c0.087-0.076 0.198-0.118 0.311-0.118h3.875c0.259 0 0.469 0.21 0.469 0.469v4.531h-3.5c-0.276 0-0.5 0.224-0.5 0.5v4.5h-3.5c-0.276 0-0.5 0.224-0.5 0.5v4.191l-4.724 2.362c-0.131 0.065-0.227 0.186-0.262 0.328s-0.006 0.293 0.080 0.412c0.44 0.607 0.906 2.114 0.906 3.707 0 4.178-3.296 8.5-8.812 8.5-5.066 0-9.188-4.122-9.188-9.188s4.122-9.187 9.188-9.187zM8.5 27c1.93 0 3.5-1.57 3.5-3.5s-1.57-3.5-3.5-3.5-3.5 1.57-3.5 3.5 1.57 3.5 3.5 3.5zM8.5 21c1.378 0 2.5 1.122 2.5 2.5s-1.122 2.5-2.5 2.5-2.5-1.122-2.5-2.5 1.122-2.5 2.5-2.5z"></path>
</svg>
<svg id="icon-sound" width="32" height="32" viewBox="0 0 32 32" x="48" y="92">
<path fill="#444" d="M26.998 14.003c0-4.962-4.037-9-9-8.999v-0.004c-0.275-0.001-0.498-0.225-0.498-0.5s0.223-0.5 0.5-0.5c0.010 0 0.018 0.004 0.025 0.006 5.508 0.013 9.967 4.477 9.973 9.986 0 0.003 0.002 0.005 0.002 0.008 0 0.276-0.225 0.499-0.5 0.499s-0.498-0.222-0.5-0.496h-0.002zM9.121 0.878c-0.573-0.574-1.341-0.878-2.122-0.878-0.386 0-0.775 0.074-1.146 0.228-1.122 0.464-1.853 1.558-1.853 2.772l-0.001 13.757-3.12 3.122c-1.172 1.17-1.172 3.070 0 4.242l7 7c0.586 0.586 1.353 0.879 2.121 0.879s1.535-0.293 2.121-0.879l3.121-3.121h13.756c1.215 0 2.309-0.73 2.771-1.852 0.465-1.121 0.209-2.412-0.65-3.27l-21.998-22zM13.828 26.586l-3.121 3.121c-0.255 0.254-0.553 0.293-0.707 0.293s-0.452-0.039-0.707-0.293l-7-7c-0.255-0.256-0.293-0.553-0.293-0.707s0.038-0.453 0.293-0.707l3.12-3.121c0.009-0.010 0.012-0.021 0.021-0.031l8.425 8.426c-0.009 0.007-0.022 0.009-0.031 0.019zM15.242 26c-0.155 0-0.299 0.055-0.447 0.088l-8.885-8.885c0.034-0.148 0.089-0.292 0.089-0.446l0.001-12.046 21.287 21.289h-12.045zM29.922 25.383c-0.154 0.375-0.518 0.617-0.924 0.617h-0.297l-22.701-22.703v-0.297c0-0.406 0.242-0.769 0.617-0.924 0.123-0.051 0.251-0.076 0.382-0.076 0.268 0 0.519 0.104 0.707 0.292l21.999 22.001c0.287 0.287 0.373 0.715 0.217 1.090zM17.998 2c-0.551-0.001-0.998-0.449-0.998-1 0-0.553 0.447-1 1-1 0.010 0 0.018 0.004 0.025 0.005 7.717 0.014 13.967 6.269 13.973 13.987 0 0.003 0.002 0.005 0.002 0.008 0 0.553-0.447 1-1 1-0.551 0-0.998-0.446-1-0.996h-0.002c0-6.617-5.383-12-12-12v-0.004z"></path>
</svg>
<svg id="icon-trash" width="32" height="32" viewBox="0 0 32 32" x="96" y="92">
<path fill="#444" d="M29.98 6.819c-0.096-1.57-1.387-2.816-2.98-2.816h-3v-1.002c0-1.657-1.344-3-3-3h-10c-1.657 0-3 1.343-3 3v1.001h-3c-1.595 0-2.885 1.246-2.981 2.816h-0.019v2.183c0 1.104 0.896 2 2 2v0 17c0 2.209 1.791 4 4 4h16c2.209 0 4-1.791 4-4v-17c1.104 0 2-0.896 2-2v-2.182h-0.020zM10 3.002c0-0.553 0.447-1 1-1h10c0.553 0 1 0.447 1 1v1h-12v-1zM26 28.002c0 1.102-0.898 2-2 2h-16c-1.103 0-2-0.898-2-2v-17h20v17zM28 8.001v1h-24v-1.999c0-0.553 0.447-1 1-1h22c0.553 0 1 0.447 1 1v0.999zM9 28.006h2c0.553 0 1-0.447 1-1v-13c0-0.553-0.447-1-1-1h-2c-0.553 0-1 0.447-1 1v13c0 0.553 0.447 1 1 1zM9 14.005h2v13h-2v-13zM15 28.006h2c0.553 0 1-0.447 1-1v-13c0-0.553-0.447-1-1-1h-2c-0.553 0-1 0.447-1 1v13c0 0.553 0.447 1 1 1zM15 14.005h2v13h-2v-13zM21 28.006h2c0.553 0 1-0.447 1-1v-13c0-0.553-0.447-1-1-1h-2c-0.553 0-1 0.447-1 1v13c0 0.553 0.447 1 1 1zM21 14.005h2v13h-2v-13z"></path>
</svg>
<svg id="icon-user2" width="32" height="32" viewBox="0 0 32 32" x="144" y="92">
<path fill="#444" d="M31.11 28.336c-0.201-0.133-3.848-2.525-9.273-3.699 1.99-2.521 3.268-5.912 3.811-8.169 0.754-3.128 0.461-9.248-2.543-13.062-1.756-2.229-4.213-3.406-7.105-3.406s-5.349 1.178-7.104 3.406c-3.004 3.813-3.296 9.933-2.543 13.061 0.543 2.257 1.82 5.648 3.811 8.169-5.425 1.174-9.072 3.566-9.272 3.699-0.733 0.488-1.061 1.4-0.805 2.242 0.254 0.845 1.033 1.423 1.913 1.423h28c0.881 0 1.658-0.578 1.914-1.422 0.257-0.842-0.071-1.754-0.804-2.242zM20.267 23.398l-0.326 0.414c-2.385 2.74-5.495 2.74-7.879 0l-0.327-0.414c-2.785-3.529-4.167-8.197-3.572-12.65 0.545-4.279 2.997-8.748 7.837-8.748s7.293 4.47 7.838 8.749c0.593 4.455-0.784 9.118-3.571 12.649zM2 30c0.138-0.092 3.526-2.314 8.586-3.408l2.484-0.537c0.887 0.582 1.86 0.945 2.93 0.945 1.071 0 2.043-0.363 2.93-0.945l2.484 0.537c5.020 1.086 8.396 3.283 8.586 3.408h-28z"></path>
</svg>
<svg id="icon-key" width="32" height="32" viewBox="0 0 32 32" x="192" y="92">
<path fill="#444" d="M22.004 0c-5.523 0-10 4.478-10 10 0 1.285 0.269 2.501 0.713 3.629l-12.149 12.148c-0.351 0.352-0.568 0.686-0.568 1.223v3c0 1.070 0.929 2 2 2h3c0.536 0 0.875-0.215 1.226-0.564l1.435-1.436h2.343c1.104 0 2-0.896 2-2v-2h2c1.104 0 2-0.896 2-2v-2.344l2.369-2.371c1.129 0.445 2.344 0.715 3.631 0.715 5.521 0 10-4.478 10-10s-4.479-10-10-10zM22.004 18c-1.48 0-2.852-0.43-4.041-1.132l-0.344 0.343-3.030 3.031c-0.375 0.375-0.586 0.883-0.586 1.414v2.344h-2c-1.104 0-2 0.895-2 2v2h-2.342c-0.53 0-1.039 0.211-1.414 0.586l-1.418 1.418-2.826-0.004-0.003-2.85 11.665-11.644c0 0 0 0.001 0.001 0.002l1.469-1.469c-0.702-1.189-1.132-2.56-1.132-4.040 0-4.418 3.583-8 8-8s8 3.582 8 8-3.581 8.001-7.999 8.001zM27.82 8.239c-1.121-1.562-2.486-2.925-4.055-4.054-0.255-0.185-0.585-0.231-0.882-0.127-1.389 0.489-2.34 1.439-2.826 2.828-0.037 0.104-0.055 0.212-0.055 0.319 0 0.199 0.062 0.396 0.182 0.563 1.125 1.564 2.488 2.928 4.053 4.053 0.256 0.184 0.584 0.231 0.881 0.128 1.391-0.486 2.342-1.438 2.83-2.828 0.037-0.104 0.055-0.212 0.055-0.319-0.001-0.199-0.064-0.396-0.183-0.563zM24.82 11.010c-1.478-1.063-2.765-2.35-3.82-3.793 0.387-1.103 1.111-1.827 2.182-2.221 1.479 1.065 2.764 2.349 3.816 3.811-0.391 1.095-1.113 1.815-2.178 2.203z"></path>
</svg>
<svg id="icon-settings" width="32" height="32" viewBox="0 0 32 32" x="240" y="92">
<path fill="#444" d="M30.391 12.68l-3.064-0.614c-0.154-0.443-0.336-0.873-0.537-1.289l1.736-2.604c0.529-0.793 0.424-1.85-0.25-2.523l-1.924-1.924c-0.387-0.387-0.898-0.586-1.416-0.586-0.383 0-0.77 0.11-1.107 0.336l-2.604 1.735c-0.418-0.202-0.848-0.382-1.291-0.536l-0.614-3.065c-0.186-0.936-1.008-1.608-1.961-1.608h-2.72c-0.953 0-1.774 0.673-1.961 1.608l-0.614 3.065c-0.443 0.154-0.873 0.335-1.289 0.536l-2.603-1.735c-0.339-0.226-0.725-0.336-1.109-0.336-0.517 0-1.028 0.199-1.415 0.586l-1.923 1.924c-0.674 0.674-0.779 1.73-0.25 2.523l1.735 2.604c-0.202 0.417-0.382 0.847-0.536 1.29l-3.066 0.613c-0.935 0.187-1.608 1.008-1.608 1.961v2.72c0 0.953 0.673 1.775 1.608 1.961l3.065 0.615c0.154 0.443 0.335 0.873 0.536 1.289l-1.734 2.604c-0.529 0.793-0.424 1.85 0.25 2.523l1.924 1.924c0.387 0.387 0.898 0.586 1.415 0.586 0.384 0 0.771-0.111 1.108-0.336l2.604-1.736c0.417 0.203 0.847 0.383 1.29 0.537l0.613 3.064c0.187 0.936 1.008 1.609 1.961 1.609h2.72c0.953 0 1.775-0.674 1.961-1.609l0.615-3.064c0.443-0.154 0.873-0.336 1.289-0.537l2.604 1.736c0.338 0.225 0.725 0.336 1.107 0.336 0.518 0 1.029-0.199 1.416-0.586l1.924-1.924c0.674-0.674 0.779-1.73 0.25-2.523l-1.736-2.604c0.203-0.418 0.383-0.848 0.537-1.291l3.064-0.613c0.935-0.185 1.609-1.008 1.609-1.961v-2.72c0-0.953-0.674-1.774-1.609-1.961zM26.934 17.975c-0.695 0.139-1.264 0.635-1.496 1.305-0.129 0.369-0.279 0.727-0.447 1.074-0.311 0.639-0.258 1.393 0.135 1.982l1.736 2.604-1.924 1.924-2.604-1.736c-0.334-0.223-0.721-0.336-1.109-0.336-0.297 0-0.596 0.066-0.871 0.199-0.348 0.168-0.705 0.32-1.076 0.449-0.668 0.232-1.164 0.801-1.303 1.496l-0.615 3.066h-2.72l-0.613-3.066c-0.139-0.695-0.635-1.264-1.304-1.496-0.369-0.129-0.728-0.279-1.075-0.447-0.276-0.135-0.574-0.201-0.872-0.201-0.389 0-0.775 0.113-1.109 0.336l-2.604 1.736-1.924-1.924 1.735-2.604c0.393-0.59 0.444-1.344 0.137-1.98-0.168-0.348-0.319-0.705-0.448-1.076-0.232-0.668-0.802-1.164-1.496-1.303l-3.065-0.615-0.002-2.721 3.066-0.613c0.694-0.139 1.264-0.635 1.496-1.304 0.129-0.369 0.278-0.728 0.447-1.075 0.31-0.638 0.258-1.392-0.136-1.981l-1.734-2.604 1.923-1.924 2.604 1.735c0.334 0.223 0.721 0.336 1.109 0.336 0.297 0 0.595-0.066 0.871-0.199 0.347-0.168 0.705-0.319 1.075-0.448 0.669-0.232 1.165-0.802 1.304-1.496l0.614-3.065 2.72-0.001 0.613 3.066c0.139 0.694 0.635 1.264 1.305 1.496 0.369 0.129 0.727 0.278 1.074 0.447 0.277 0.134 0.574 0.2 0.873 0.2 0.389 0 0.775-0.113 1.109-0.336l2.604-1.735 1.924 1.924-1.736 2.604c-0.393 0.59-0.443 1.343-0.137 1.98 0.168 0.347 0.32 0.705 0.449 1.075 0.232 0.669 0.801 1.165 1.496 1.304l3.064 0.614 0.003 2.72-3.066 0.614zM16 9.001c-3.865 0-7 3.135-7 7 0 3.866 3.135 7 7 7s7-3.135 7-7c0-3.865-3.135-7-7-7zM16 22.127c-3.382 0-6.125-2.744-6.125-6.125s2.743-6.125 6.125-6.125c3.381 0 6.125 2.743 6.125 6.125 0 3.381-2.744 6.125-6.125 6.125zM16 12.001c-2.21 0-4 1.79-4 4s1.79 4 4 4c2.209 0 4-1.791 4-4s-1.791-4-4-4zM16 19.002c-1.656 0-3-1.344-3-3s1.344-3 3-3 3 1.344 3 3c0 1.656-1.344 3-3 3z"></path>
</svg>
<svg id="icon-bulb" width="32" height="32" viewBox="0 0 32 32" x="288" y="92">
<path fill="#444" d="M16 0c-6.076 0-11 4.924-11 11 0 4.031 3.688 8.303 5.031 12.055 2.003 5.595 1.781 8.945 5.969 8.945 4.25 0 3.965-3.334 5.969-8.922 1.347-3.76 5.031-8.078 5.031-12.078 0-6.076-4.926-11-11-11zM18.592 27.176l-4.958 0.619c-0.177-0.512-0.367-1.111-0.598-1.893-0.003-0.010-0.007-0.021-0.009-0.031l6.188-0.773c-0.088 0.295-0.182 0.605-0.264 0.883-0.131 0.449-0.248 0.839-0.359 1.195zM12.736 24.908c-0.182-0.602-0.387-1.236-0.615-1.908h7.766c-0.123 0.359-0.246 0.719-0.352 1.059l-6.799 0.849zM16 30c-1.013 0-1.479-0.117-1.997-1.25l4.238-0.531c-0.614 1.654-1.061 1.781-2.241 1.781zM20.672 21h-9.333c-0.498-1.080-1.096-2.16-1.686-3.217-1.305-2.335-2.653-4.75-2.653-6.783 0-4.963 4.037-9 9-9s9 4.037 9 9c0 2.018-1.35 4.446-2.656 6.795-0.584 1.053-1.178 2.131-1.672 3.205zM16 5c0.275 0 0.5 0.224 0.5 0.5s-0.224 0.5-0.5 0.5c-2.757 0-5 2.243-5 5 0 0.276-0.224 0.5-0.5 0.5s-0.5-0.224-0.5-0.5c0-3.309 2.691-6 6-6z"></path>
</svg>
<svg id="icon-pen" width="32" height="32" viewBox="0 0 32 32" x="336" y="92">
<path fill="#444" d="M29.395 2.58c-1.645-1.643-3.811-2.58-5.946-2.58-1.801 0-3.459 0.668-4.67 1.877l-4.867 4.904c-0.015 0.014-0.032 0.023-0.047 0.038-0.008 0.008-0.013 0.019-0.021 0.026l0.002 0.002-10.329 10.409c-0.476 0.473-0.821 1.062-1.013 1.705l-2.349 8.508c-0.002 0.023-0.155 0.691-0.155 1.031 0 1.932 1.569 3.5 3.504 3.5 0.385 0 1.13-0.184 1.157-0.188l8.478-2.229c0.644-0.191 1.229-0.539 1.705-1.016l15.263-15.383c2.776-2.778 2.463-7.434-0.712-10.604zM16.014 23.795c-0.082-0.902-0.337-1.787-0.719-2.627l9.455-9.454c0.578 1.826 0.281 3.736-0.986 5.004-0.008 0.008-0.018 0.013-0.025 0.021l0.014 0.013-7.728 7.79c0-0.249 0.012-0.493-0.011-0.747zM14.793 20.256c-0.373-0.613-0.797-1.205-1.322-1.729-0.611-0.611-1.312-1.090-2.044-1.492l9.532-9.532c0.748 0.332 1.465 0.805 2.098 1.438 0.541 0.539 0.959 1.143 1.281 1.771l-9.545 9.544zM10.486 16.562c-0.926-0.373-1.896-0.586-2.868-0.599l7.703-7.762c1.179-1.15 2.896-1.481 4.587-1.062l-9.422 9.423zM4.167 29.873c-0.109 0.025-0.448 0.111-0.678 0.127-0.822-0.010-1.489-0.678-1.489-1.5 0.012-0.168 0.079-0.457 0.102-0.562l1.053-3.814c1.143-0.031 2.373 0.414 3.34 1.383 0.982 0.98 1.444 2.234 1.394 3.391l-3.722 0.975zM8.874 28.637c-0.024-1.342-0.57-2.738-1.672-3.838-1.042-1.043-2.406-1.645-3.766-1.699l0.996-3.607c0.072-0.24 0.215-0.477 0.391-0.684 2.006-1.436 5.091-1.012 7.234 1.133 2.267 2.266 2.617 5.586 0.871 7.568-0.116 0.061-0.233 0.119-0.359 0.156l-3.695 0.971zM28.691 11.772l-1.684 1.697c0-0.226 0.027-0.443 0.006-0.674-0.176-1.935-1.078-3.806-2.543-5.269-1.629-1.63-3.789-2.565-5.928-2.571l1.656-1.67c0.829-0.827 1.986-1.285 3.251-1.285 1.609 0 3.262 0.728 4.533 1.995 1.193 1.191 1.904 2.671 2.006 4.168 0.094 1.397-0.367 2.678-1.297 3.609z"></path>
</svg>
<svg id="icon-bubble" width="32" height="32" viewBox="0 0 32 32" x="384" y="92">
<path fill="#444" d="M16 7c0.276 0 0.5 0.224 0.5 0.5s-0.225 0.5-0.5 0.5c-5.327 0-10 2.804-10 6 0 0.276-0.224 0.5-0.5 0.5s-0.5-0.224-0.5-0.5c0-3.794 5.037-7 11-7zM16 2c-8.837 0-16 5.373-16 12 0 4.127 2.779 7.766 7.008 9.926 0 0.027-0.008 0.045-0.008 0.074 0 1.793-1.339 3.723-1.928 4.736 0.001 0 0.002 0 0.002 0-0.047 0.11-0.074 0.231-0.074 0.358 0 0.5 0.405 0.906 0.906 0.906 0.094 0 0.259-0.025 0.255-0.014 3.125-0.512 6.069-3.383 6.753-4.215 0.999 0.147 2.029 0.229 3.086 0.229 8.835 0 16-5.373 16-12s-7.164-12-16-12zM16 24c-0.917 0-1.858-0.070-2.796-0.207-0.097-0.016-0.194-0.021-0.29-0.021-0.594 0-1.163 0.264-1.546 0.73-0.428 0.521-1.646 1.684-3.085 2.539 0.39-0.895 0.695-1.898 0.716-2.932 0.006-0.064 0.009-0.129 0.009-0.184 0-0.752-0.421-1.439-1.090-1.781-3.706-1.892-5.918-4.937-5.918-8.144 0-5.514 6.28-10 14-10 7.718 0 14 4.486 14 10s-6.281 10-14 10z"></path>
</svg>
<svg id="icon-data" width="32" height="32" viewBox="0 0 32 32" x="432" y="92">
<path fill="#444" d="M16 0c-6.744 0-14 2.033-14 6.5v19c0 4.465 7.256 6.5 14 6.5s14-2.035 14-6.5v-19c0-4.467-7.258-6.5-14-6.5zM28 25.5c0 2.484-5.373 4.5-12 4.5-6.628 0-12-2.016-12-4.5v-3.736c2.066 2.129 7.050 3.236 12 3.236s9.934-1.107 12-3.236v3.736zM28 19.5h-0.004c0 0.010 0.004 0.021 0.004 0.031 0 2.469-5.373 4.469-12 4.469s-12-2-12-4.469c0-0.010 0.004-0.021 0.004-0.031h-0.004v-3.736c2.066 2.129 7.050 3.236 12 3.236s9.934-1.107 12-3.236v3.736zM28 13.5h-0.004c0 0.010 0.004 0.021 0.004 0.031 0 2.469-5.373 4.469-12 4.469s-12-2-12-4.469c0-0.010 0.004-0.021 0.004-0.031h-0.004v-3.436c2.621 1.997 7.425 2.936 12 2.936s9.379-0.939 12-2.936v3.436zM16 11c-6.628 0-12-2.016-12-4.5 0-2.486 5.372-4.5 12-4.5 6.627 0 12 2.014 12 4.5 0 2.484-5.373 4.5-12 4.5zM24 26c0-0.552 0.448-1 1-1s1 0.448 1 1c0 0.552-0.448 1-1 1s-1-0.448-1-1zM24 20c0-0.552 0.448-1 1-1s1 0.448 1 1c0 0.552-0.448 1-1 1s-1-0.448-1-1zM24 14c0-0.552 0.448-1 1-1s1 0.448 1 1c0 0.552-0.448 1-1 1s-1-0.448-1-1z"></path>
</svg>
<svg id="icon-lab" width="32" height="32" viewBox="0 0 32 32" x="480" y="92">
<path fill="#444" d="M20.682 3.732c-0.473-0.472-1.1-0.732-1.768-0.732s-1.295 0.26-1.77 0.733l-1.41 1.412c-0.473 0.472-0.734 1.1-0.734 1.769 0 0.471 0.129 0.922 0.371 1.313l-13.577 5.439c-0.908 0.399-1.559 1.218-1.742 2.189-0.185 0.977 0.125 1.979 0.834 2.687l12.72 12.58c0.548 0.548 1.276 0.859 2.045 0.877 0.018 0.001 0.060 0.001 0.078 0.001 0.202 0 0.407-0.021 0.61-0.062 0.994-0.206 1.808-0.893 2.177-1.828l5.342-13.376c0.402 0.265 0.875 0.407 1.367 0.407 0.67 0 1.297-0.261 1.768-0.733l1.407-1.408c0.477-0.474 0.738-1.103 0.738-1.773s-0.262-1.3-0.732-1.768l-7.724-7.727zM16.659 29.367c-0.124 0.313-0.397 0.544-0.727 0.612-0.076 0.016-0.153 0.022-0.229 0.021-0.254-0.006-0.499-0.108-0.682-0.292l-12.728-12.588c-0.234-0.233-0.337-0.567-0.275-0.893 0.061-0.324 0.279-0.598 0.582-0.73l6.217-2.49c4.189 1.393 8.379 0.051 12.57 4.522l-4.728 11.838zM26.992 13.58l-1.414 1.413c-0.195 0.196-0.512 0.196-0.707 0l-1.768-1.767-1.432 3.589 0.119-0.303c-3.010-3.005-6.069-3.384-8.829-3.723-0.887-0.109-1.747-0.223-2.592-0.405l8.491-3.401-1.715-1.715c-0.195-0.195-0.195-0.512 0-0.707l1.414-1.415c0.195-0.195 0.512-0.195 0.707 0l7.725 7.727c0.198 0.195 0.198 0.512 0.001 0.707zM16.5 21c1.378 0 2.5-1.121 2.5-2.5s-1.121-2.5-2.5-2.5c-1.379 0-2.5 1.121-2.5 2.5s1.122 2.5 2.5 2.5zM16.5 17c0.828 0 1.5 0.672 1.5 1.5s-0.672 1.5-1.5 1.5c-0.829 0-1.5-0.672-1.5-1.5s0.671-1.5 1.5-1.5zM29.5 0c-1.379 0-2.5 1.121-2.5 2.5s1.121 2.5 2.5 2.5 2.5-1.121 2.5-2.5-1.121-2.5-2.5-2.5zM29.5 4c-0.828 0-1.5-0.672-1.5-1.5s0.672-1.5 1.5-1.5 1.5 0.672 1.5 1.5-0.672 1.5-1.5 1.5zM8 17c0 1.103 0.897 2 2 2s2-0.897 2-2-0.897-2-2-2-2 0.897-2 2zM10 16c0.552 0 1 0.447 1 1s-0.448 1-1 1-1-0.447-1-1 0.448-1 1-1zM12 23c0-0.552 0.448-1 1-1s1 0.448 1 1c0 0.552-0.448 1-1 1s-1-0.448-1-1zM28 8c0-0.552 0.448-1 1-1s1 0.448 1 1c0 0.552-0.448 1-1 1s-1-0.448-1-1z"></path>
</svg>
<svg id="icon-shop" width="32" height="32" viewBox="0 0 32 32" x="528" y="92">
<path fill="#444" d="M31.4 11.2l-3-3.998c-0.117-0.157-0.256-0.293-0.4-0.423v-4.779c0-1.104-0.896-2-2-2h-20c-1.105 0-2 0.896-2 2v4.78c-0.144 0.129-0.283 0.264-0.4 0.42l-2.999 3.999c-0.388 0.516-0.601 1.155-0.601 1.801v1c0 1.654 1.346 3 3 3v0 13c0 1.104 0.896 2 2 2h22c1.104 0 2-0.896 2-2v-13c1.654 0 3-1.346 3-3v-1c0-0.646-0.213-1.285-0.6-1.8zM26 2v4h-20v-4h20zM10.193 15h-4.189l4-7h2.189l-2 7zM13.234 8h2.266v7h-4.266l2-7zM16.5 8h2.266l2 7h-4.266v-7zM19.805 8h2.189l4 7h-4.189l-2-7zM2 14v-1c0-0.217 0.070-0.427 0.2-0.6l3-4c0.189-0.252 0.485-0.4 0.8-0.4h2.852l-4 7h-1.852c-0.552 0-1-0.447-1-1zM20 30h-7.5v-10h7.5v10zM27 30h-6v-10c0-0.553-0.449-1-1-1h-7.5c-0.552 0-1 0.447-1 1v10h-6.5v-13h22v13zM30 14c0 0.553-0.447 1-1 1h-1.854l-4-7h2.854c0.314 0 0.611 0.148 0.799 0.4l3 4c0.131 0.173 0.201 0.383 0.201 0.6v1z"></path>
</svg>
<svg id="icon-truck" width="32" height="32" viewBox="0 0 32 32" x="576" y="92">
<path fill="#444" d="M24.832 11.445c-0.186-0.278-0.498-0.445-0.832-0.445h-1c-0.553 0-1 0.447-1 1v6c0 0.553 0.447 1 1 1h4c0.553 0 1-0.447 1-1v-1.5c0-0.197-0.059-0.391-0.168-0.555l-3-4.5zM27 18h-4v-6h1l3 4.5v1.5zM31.496 15.336l-4-6c-0.558-0.837-1.492-1.336-2.496-1.336h-4v-2c0-1.654-1.346-3-3-3h-15c-1.654 0-3 1.346-3 3v11c0 1.654 1.346 3 3 3v0 3c0 1.654 1.346 3 3 3h1.142c0.447 1.721 2 3 3.859 3 1.857 0 3.41-1.279 3.857-3h5.282c0.447 1.721 2 3 3.859 3 1.857 0 3.41-1.279 3.857-3h1.144c1.654 0 3-1.346 3-3v-6c0-0.594-0.174-1.17-0.504-1.664zM3 18c-0.552 0-1-0.447-1-1v-11c0-0.553 0.448-1 1-1h15c0.553 0 1 0.447 1 1v11c0 0.553-0.447 1-1 1h-15zM11.001 27c-1.105 0-2-0.896-2-2s0.895-2 2-2c1.104 0 2 0.896 2 2s-0.897 2-2 2zM24 27c-1.105 0-2-0.896-2-2s0.895-2 2-2c1.104 0 2 0.896 2 2s-0.896 2-2 2zM30 23c0 0.553-0.447 1-1 1h-1.143c-0.447-1.721-2-3-3.857-3-1.859 0-3.412 1.279-3.859 3h-5.282c-0.447-1.721-2-3-3.857-3-1.859 0-3.412 1.279-3.859 3h-1.143c-0.552 0-1-0.447-1-1v-3h13c1.654 0 3-1.346 3-3v-7h4c0.334 0 0.646 0.167 0.832 0.445l4 6c0.109 0.164 0.168 0.358 0.168 0.555v6z"></path>
</svg>
</svg>
