<?xml version="1.0" encoding="utf-8"?>
<!-- Generator: Adobe Illustrator 16.0.2, SVG Export Plug-In . SVG Version: 6.00 Build 0)  -->
<!DOCTYPE svg PUBLIC "-//W3C//DTD SVG 1.1//EN" "http://www.w3.org/Graphics/SVG/1.1/DTD/svg11.dtd">
<svg version="1.1" id="圖層_1" xmlns="http://www.w3.org/2000/svg" xmlns:xlink="http://www.w3.org/1999/xlink" x="0px" y="0px"
	 width="566.93px" height="566.93px" viewBox="0 0 566.93 566.93" enable-background="new 0 0 566.93 566.93" xml:space="preserve">
<circle fill="#FFFFFF" cx="283.465" cy="283.465" r="214.274"/>
<g>
	
		<line fill="#579AB6" stroke="#5799B6" stroke-width="5" stroke-miterlimit="10" x1="417.653" y1="129.655" x2="436.214" y2="170.915"/>
	
		<line fill="#579AB6" stroke="#5799B6" stroke-width="5" stroke-miterlimit="10" x1="405.97" y1="134.911" x2="424.53" y2="176.171"/>
	
		<line fill="#579AB6" stroke="#5799B6" stroke-width="5" stroke-miterlimit="10" x1="394.284" y1="140.167" x2="412.847" y2="181.427"/>
</g>
<path fill="#579AB6" stroke="#FFFFFF" stroke-width="2" stroke-miterlimit="10" d="M422.456,120.398
	c-7.202-1.746-14.816-1.632-22.727,1.927c-13.588,6.113-19.111,18.479-22.002,31.297c2.48,1.552,4.959,3.211,7.566,4.964
	c1.809,1.217,3.564,2.383,5.271,3.485c2.004-11.78,5.391-22.439,15.004-26.764c9.715-4.37,19.859,0.308,29.867,6.579
	c2.387,1.494,4.764,3.079,7.127,4.654c2.668,1.778,5.188,3.458,7.732,5.023c0.83,0.509,1.654,1.027,2.477,1.546
	c0.059,0.036,0.117,0.073,0.176,0.109c0.418,0.263,0.841,0.529,1.267,0.795C444.861,141.697,434.208,130.424,422.456,120.398z"/>
<g>
	
		<line fill="#579AB6" stroke="#5799B6" stroke-width="5" stroke-miterlimit="10" x1="353.987" y1="157.721" x2="372.548" y2="198.981"/>
	
		<line fill="#579AB6" stroke="#5799B6" stroke-width="5" stroke-miterlimit="10" x1="342.304" y1="162.977" x2="360.864" y2="204.238"/>
	
		<line fill="#579AB6" stroke="#5799B6" stroke-width="5" stroke-miterlimit="10" x1="330.618" y1="168.233" x2="349.181" y2="209.494"/>
</g>
<path fill="#579AB6" stroke="#FFFFFF" stroke-width="2" stroke-miterlimit="10" d="M450.618,155.399
	c-2.584-1.588-5.24-3.358-7.807-5.07c-1.379-0.918-2.717-1.803-4.02-2.648c-0.635,3.789-1.404,7.475-2.488,10.877l-0.014-0.003
	c-0.008,0.044-0.02,0.087-0.027,0.13c-1.65,5.131-4.025,9.604-7.74,12.781c-1.559,1.267-3.283,2.324-5.123,3.134
	c-0.617,0.256-1.236,0.486-1.859,0.674l0.018,0.039c-2.604,0.876-5.389,1.271-8.229,1.077c-5.729-0.394-10.703-3.525-16.465-7.151
	c-0.924-0.582-1.85-1.164-2.779-1.735c-0.84-0.517-1.697-1.063-2.563-1.622c-1.529-0.988-3.098-2.03-4.729-3.117
	c-3.984-2.657-8.246-5.498-12.746-8.008c-11.355-6.333-24.223-10.555-37.984-4.364c-13.588,6.113-19.111,18.479-22.002,31.297
	c2.48,1.552,4.959,3.211,7.566,4.964c1.809,1.217,3.564,2.383,5.271,3.485c2.004-11.78,5.391-22.439,15.004-26.764
	c9.715-4.37,19.859,0.308,29.867,6.579c2.387,1.494,4.764,3.079,7.127,4.654c2.668,1.778,5.188,3.458,7.732,5.023
	c0.83,0.509,1.654,1.027,2.477,1.546c0.059,0.036,0.117,0.073,0.176,0.109c6.453,4.062,13.77,8.666,23.072,9.305
	c5.537,0.38,11.055-0.56,16.148-2.688c0.412-0.167,0.824-0.341,1.238-0.527c4.313-1.94,7.803-4.494,10.648-7.478
	c4.822-4.848,8.174-10.924,9.646-17.557c0.635-2.069,1.172-4.173,1.637-6.283C451.321,155.838,450.97,155.616,450.618,155.399z"/>
<g>
	
		<line fill="#579AB6" stroke="#5799B6" stroke-width="5" stroke-miterlimit="10" x1="288.811" y1="185.607" x2="307.372" y2="226.867"/>
	
		<line fill="#579AB6" stroke="#5799B6" stroke-width="5" stroke-miterlimit="10" x1="277.127" y1="190.863" x2="295.688" y2="232.124"/>
	
		<line fill="#579AB6" stroke="#5799B6" stroke-width="5" stroke-miterlimit="10" x1="265.442" y1="196.119" x2="284.004" y2="237.38"/>
</g>
<g>
	
		<line fill="#579AB6" stroke="#5799B6" stroke-width="5" stroke-miterlimit="10" x1="226.641" y1="213.575" x2="245.202" y2="254.835"/>
	
		<line fill="#579AB6" stroke="#5799B6" stroke-width="5" stroke-miterlimit="10" x1="214.957" y1="218.831" x2="233.518" y2="260.092"/>
	
		<line fill="#579AB6" stroke="#5799B6" stroke-width="5" stroke-miterlimit="10" x1="203.273" y1="224.087" x2="221.834" y2="265.348"/>
</g>
<g>
	
		<line fill="#579AB6" stroke="#5799B6" stroke-width="5" stroke-miterlimit="10" x1="161.192" y1="236.954" x2="179.753" y2="278.215"/>
	
		<line fill="#579AB6" stroke="#5799B6" stroke-width="5" stroke-miterlimit="10" x1="149.508" y1="242.21" x2="168.069" y2="283.471"/>
	
		<line fill="#579AB6" stroke="#5799B6" stroke-width="5" stroke-miterlimit="10" x1="137.824" y1="247.467" x2="156.385" y2="288.727"/>
</g>
<path fill="#579AB6" stroke="#FFFFFF" stroke-width="3" stroke-miterlimit="10" d="M249.651,232.697
	c-1.377-0.918-2.716-1.803-4.02-2.647c-0.633,3.788-1.404,7.475-2.488,10.876l-0.013-0.002c-0.008,0.043-0.019,0.086-0.027,0.129
	c-1.649,5.132-4.024,9.604-7.741,12.782c-1.558,1.266-3.282,2.323-5.124,3.133c-0.617,0.257-1.236,0.486-1.858,0.675l0.018,0.039
	c-2.604,0.876-5.388,1.271-8.229,1.076c-5.728-0.394-10.704-3.524-16.464-7.151c-0.925-0.581-1.85-1.163-2.78-1.735
	c-0.84-0.516-1.696-1.063-2.563-1.622c-1.529-0.987-3.097-2.029-4.728-3.117c-3.985-2.657-8.247-5.497-12.747-8.007
	c-11.355-6.334-24.224-10.555-37.984-4.364c-13.588,6.112-19.112,18.479-22.002,31.296c2.481,1.552,4.958,3.212,7.566,4.965
	c1.809,1.216,3.564,2.383,5.272,3.485c2.005-11.781,5.392-22.439,15.005-26.764c9.713-4.37,19.859,0.308,29.867,6.578
	c2.386,1.495,4.764,3.079,7.126,4.655c2.668,1.777,5.187,3.458,7.733,5.022c0.829,0.51,1.652,1.028,2.477,1.547
	c0.058,0.036,0.117,0.072,0.174,0.108c6.455,4.063,13.77,8.666,23.072,9.306c5.538,0.38,11.054-0.561,16.148-2.688
	c0.412-0.166,0.825-0.341,1.238-0.526c4.314-1.94,7.804-4.495,10.648-7.478c4.823-4.849,8.174-10.924,9.648-17.558
	c0.633-2.068,1.172-4.172,1.636-6.283c-0.353-0.219-0.702-0.441-1.056-0.658C254.874,236.181,252.219,234.41,249.651,232.697z"/>
<g>
	
		<line fill="#579AB6" stroke="#5799B6" stroke-width="5" stroke-miterlimit="10" x1="96.815" y1="266.097" x2="115.376" y2="307.356"/>
	
		<line fill="#579AB6" stroke="#5799B6" stroke-width="5" stroke-miterlimit="10" x1="85.132" y1="271.353" x2="103.693" y2="312.613"/>
	
		<line fill="#579AB6" stroke="#5799B6" stroke-width="5" stroke-miterlimit="10" x1="73.448" y1="276.608" x2="92.009" y2="317.869"/>
</g>
<path fill="#579AB6" stroke="#FFFFFF" stroke-width="3" stroke-miterlimit="10" d="M105.518,322.793
	c0.412-0.166,0.825-0.341,1.238-0.526c4.314-1.94,7.804-4.495,10.648-7.478c4.823-4.849,8.174-10.924,9.648-17.558
	c0.633-2.068,1.172-4.172,1.636-6.283c-0.353-0.219-0.702-0.441-1.056-0.658c-2.584-1.588-5.238-3.358-7.807-5.071
	c-1.377-0.918-2.716-1.803-4.02-2.647c-0.633,3.788-1.404,7.475-2.488,10.876l-0.013-0.002c-0.008,0.043-0.019,0.086-0.027,0.129
	c-1.649,5.132-4.024,9.604-7.741,12.782c-1.558,1.266-3.282,2.323-5.124,3.133c-0.617,0.257-1.236,0.486-1.858,0.675l0.018,0.039
	c-2.604,0.876-5.388,1.271-8.229,1.076c-5.728-0.394-10.704-3.524-16.464-7.151c-0.925-0.581-1.85-1.163-2.78-1.735
	c-0.371-0.228-0.754-0.478-1.131-0.716c0.515,6.118,1.286,12.162,2.305,18.123c4.975,2.811,10.541,5.231,17.095,5.682
	C94.907,325.861,100.423,324.921,105.518,322.793z"/>
<path fill="#579AB6" stroke="#FFFFFF" stroke-width="3" stroke-miterlimit="10" d="M86.725,273.643
	c9.713-4.369,19.859,0.308,29.867,6.579c2.386,1.495,4.764,3.079,7.126,4.654c2.668,1.778,5.187,3.458,7.733,5.023
	c0.829,0.51,1.653,1.028,2.477,1.547c0.059,0.036,0.117,0.072,0.175,0.108c6.454,4.062,13.769,8.666,23.072,9.306
	c5.537,0.38,11.054-0.561,16.147-2.688c0.413-0.167,0.826-0.341,1.239-0.527c4.313-1.939,7.804-4.494,10.648-7.478
	c4.823-4.848,8.174-10.923,9.647-17.557c0.634-2.068,1.172-4.172,1.636-6.283c-0.352-0.22-0.702-0.442-1.055-0.658
	c-2.584-1.589-5.239-3.359-7.807-5.071c-1.377-0.918-2.715-1.803-4.02-2.647c-0.633,3.788-1.404,7.475-2.488,10.876l-0.013-0.002
	c-0.008,0.043-0.019,0.086-0.027,0.129c-1.65,5.132-4.025,9.604-7.741,12.781c-1.558,1.267-3.282,2.324-5.124,3.134
	c-0.617,0.256-1.236,0.486-1.858,0.674l0.018,0.039c-2.603,0.876-5.388,1.271-8.229,1.077c-5.728-0.394-10.704-3.524-16.464-7.151
	c-0.925-0.582-1.85-1.164-2.78-1.735c-0.839-0.517-1.696-1.063-2.562-1.622c-1.529-0.988-3.097-2.03-4.728-3.117
	c-3.985-2.657-8.247-5.498-12.747-8.008c-11.355-6.333-24.224-10.554-37.984-4.363c-4.58,2.06-8.226,4.842-11.181,8.101
	c-0.329,4.86-0.512,9.76-0.512,14.704c0,5.268,0.199,10.489,0.572,15.662c0.657,0.432,1.313,0.864,1.956,1.279
	C73.725,288.626,77.112,277.968,86.725,273.643z"/>
<path fill="#579AB6" stroke="#FFFFFF" stroke-width="3" stroke-miterlimit="10" d="M315.028,206.379
	c-1.377-0.919-2.715-1.803-4.02-2.648c-0.633,3.788-1.404,7.475-2.486,10.876l-0.014-0.002c-0.008,0.044-0.02,0.086-0.027,0.13
	c-1.65,5.131-4.025,9.604-7.741,12.781c-1.559,1.266-3.283,2.323-5.125,3.133c-0.617,0.257-1.236,0.487-1.857,0.675l0.018,0.039
	c-2.604,0.876-5.389,1.271-8.229,1.076c-5.728-0.394-10.705-3.524-16.464-7.15c-0.924-0.582-1.85-1.164-2.779-1.736
	c-0.84-0.516-1.697-1.063-2.563-1.622c-1.529-0.987-3.098-2.029-4.729-3.117c-3.984-2.656-8.247-5.497-12.746-8.007
	c-11.355-6.333-24.224-10.555-37.984-4.364c-13.588,6.112-19.112,18.479-22.002,31.297c2.48,1.551,4.958,3.21,7.566,4.964
	c1.809,1.216,3.564,2.383,5.272,3.485c2.005-11.78,5.392-22.439,15.005-26.764c9.713-4.37,19.859,0.308,29.867,6.579
	c2.387,1.494,4.764,3.079,7.127,4.654c2.668,1.778,5.187,3.458,7.732,5.023c0.83,0.509,1.652,1.027,2.477,1.546
	c0.059,0.036,0.117,0.072,0.174,0.109c6.455,4.062,13.77,8.665,23.072,9.305c5.537,0.38,11.055-0.561,16.148-2.688
	c0.412-0.166,0.826-0.341,1.238-0.526c4.315-1.94,7.806-4.495,10.649-7.478c4.824-4.849,8.174-10.924,9.648-17.558
	c0.633-2.068,1.172-4.172,1.637-6.282c-0.352-0.22-0.703-0.442-1.057-0.659C320.251,209.861,317.597,208.091,315.028,206.379z"/>
<path fill="#579AB6" stroke="#FFFFFF" stroke-width="2" stroke-miterlimit="10" d="M377.636,178.215
	c-1.379-0.918-2.717-1.803-4.02-2.648c-0.635,3.789-1.404,7.475-2.488,10.877l-0.014-0.003c-0.008,0.044-0.02,0.087-0.027,0.13
	c-1.65,5.131-4.025,9.604-7.74,12.781c-1.559,1.267-3.283,2.324-5.123,3.134c-0.617,0.256-1.236,0.486-1.859,0.674l0.018,0.039
	c-2.604,0.876-5.389,1.271-8.229,1.077c-5.729-0.394-10.703-3.525-16.465-7.151c-0.924-0.582-1.85-1.164-2.779-1.735
	c-0.84-0.517-1.697-1.063-2.563-1.622c-1.529-0.988-3.098-2.03-4.729-3.117c-3.984-2.657-8.246-5.498-12.746-8.008
	c-11.356-6.333-24.224-10.555-37.985-4.364c-13.588,6.113-19.111,18.479-22.002,31.297c2.48,1.552,4.958,3.211,7.566,4.964
	c1.809,1.217,3.564,2.383,5.271,3.485c2.004-11.78,5.391-22.439,15.004-26.764c9.714-4.37,19.859,0.308,29.868,6.579
	c2.387,1.494,4.764,3.079,7.127,4.654c2.668,1.778,5.188,3.458,7.732,5.023c0.83,0.509,1.654,1.027,2.477,1.546
	c0.059,0.036,0.117,0.073,0.176,0.109c6.453,4.062,13.77,8.666,23.072,9.305c5.537,0.38,11.055-0.56,16.148-2.688
	c0.412-0.167,0.824-0.341,1.238-0.527c4.313-1.94,7.803-4.494,10.648-7.478c4.822-4.848,8.174-10.924,9.646-17.557
	c0.635-2.069,1.172-4.173,1.637-6.283c-0.352-0.22-0.703-0.442-1.055-0.659C382.858,181.697,380.202,179.927,377.636,178.215z"/>
<path fill="#5799B6" d="M356.434,98.715l-8.896-19.775c-2.093-0.655-4.202-1.273-6.322-1.866l10.657,23.692L356.434,98.715z"/>
<g>
	<line fill="#579AB6" x1="331.476" y1="80.556" x2="342.47" y2="104.997"/>
	
		<rect x="323.573" y="90.276" transform="matrix(-0.4102 -0.912 0.912 -0.4102 390.5968 438.1493)" fill="#5799B6" width="26.8" height="5"/>
</g>
<g>
	<line fill="#579AB6" x1="319.79" y1="85.812" x2="330.786" y2="110.253"/>
	
		<rect x="311.888" y="95.532" transform="matrix(-0.4103 -0.912 0.912 -0.4103 369.3503 434.9022)" fill="#5799B6" width="26.801" height="5.001"/>
</g>
<g>
	
		<line fill="#579AB6" stroke="#5799B6" stroke-width="5" stroke-miterlimit="10" x1="268.233" y1="81.607" x2="279.228" y2="106.047"/>
	
		<line fill="#579AB6" stroke="#5799B6" stroke-width="5" stroke-miterlimit="10" x1="256.549" y1="86.863" x2="267.543" y2="111.304"/>
	
		<line fill="#579AB6" stroke="#5799B6" stroke-width="5" stroke-miterlimit="10" x1="244.864" y1="92.119" x2="255.86" y2="116.56"/>
</g>
<g>
	
		<line fill="#579AB6" stroke="#5799B6" stroke-width="5" stroke-miterlimit="10" x1="219.353" y1="110.519" x2="230.348" y2="134.958"/>
	
		<line fill="#579AB6" stroke="#5799B6" stroke-width="5" stroke-miterlimit="10" x1="207.669" y1="115.774" x2="218.664" y2="140.215"/>
	
		<line fill="#579AB6" stroke="#5799B6" stroke-width="5" stroke-miterlimit="10" x1="195.985" y1="121.03" x2="206.98" y2="145.471"/>
</g>
<path fill="#5799B6" d="M158.135,137.303l-9.251-20.564c-1.345,1.087-2.677,2.19-3.995,3.309l8.686,19.308L158.135,137.303z"/>
<path fill="#5799B6" d="M146.451,142.559l-7.697-17.109c-1.3,1.191-2.583,2.398-3.854,3.621l6.991,15.54L146.451,142.559z"/>
<path fill="#5799B6" d="M134.767,147.814l-5.774-12.834c-1.251,1.301-2.488,2.617-3.706,3.949l4.92,10.937L134.767,147.814z"/>
<path fill="#579AB6" stroke="#FFFFFF" stroke-width="2" stroke-miterlimit="10" d="M96.94,179.931
	c4.314-1.94,7.804-4.495,10.648-7.478c4.823-4.849,8.174-10.924,9.648-17.558c0.327-1.069,0.627-2.147,0.907-3.231
	c0.055,0.036,0.934-3.239,2.538-7.525c-9.588,11.192-18.042,23.382-25.185,36.397c0.068-0.028,0.138-0.051,0.206-0.079
	C96.114,180.291,96.527,180.116,96.94,179.931z"/>
<path fill="#579AB6" stroke="#FFFFFF" stroke-width="2" stroke-miterlimit="10" d="M163.452,131.764
	c2.386,1.495,4.764,3.079,7.126,4.655c2.668,1.777,5.187,3.458,7.733,5.022c0.829,0.51,1.652,1.028,2.477,1.547
	c0.058,0.036,0.117,0.072,0.174,0.108c6.455,4.063,13.77,8.666,23.072,9.306c5.538,0.38,11.054-0.561,16.148-2.688
	c0.412-0.166,0.825-0.341,1.238-0.526c4.314-1.94,7.804-4.495,10.648-7.478c4.823-4.849,8.174-10.924,9.648-17.558
	c0.564-1.844,1.044-3.718,1.472-5.599c0.017,0.011,0.035,0.023,0.052,0.034c2.004-11.78,5.391-22.439,15.004-26.764
	c9.715-4.37,19.859,0.308,29.867,6.579c2.387,1.494,4.764,3.079,7.127,4.654c2.668,1.778,5.188,3.458,7.732,5.023
	c0.83,0.509,1.654,1.027,2.477,1.546c0.059,0.036,0.117,0.073,0.176,0.109c6.453,4.062,13.77,8.666,23.072,9.305
	c5.537,0.38,11.055-0.56,16.148-2.688c0.412-0.167,0.824-0.341,1.238-0.527c4.313-1.94,7.803-4.494,10.648-7.478
	c4.822-4.848,8.174-10.924,9.646-17.557c0.129-0.419,0.562-2.074,1.262-4.425c-4.437-1.897-8.952-3.643-13.537-5.243
	c-0.718,2.841-1.471,5.881-1.471,5.881c-0.008,0.044-0.02,0.087-0.027,0.13c-1.65,5.131-4.025,9.604-7.74,12.781
	c-1.559,1.267-3.283,2.324-5.123,3.134c-0.617,0.256-1.236,0.486-1.859,0.674l0.018,0.039c-2.604,0.876-5.389,1.271-8.229,1.077
	c-5.729-0.394-10.703-3.525-16.465-7.151c-0.924-0.582-1.85-1.164-2.779-1.735c-0.84-0.517-1.697-1.063-2.563-1.622
	c-1.529-0.988-3.098-2.03-4.729-3.117c-3.984-2.657-8.246-5.498-12.746-8.008c-11.355-6.333-24.223-10.555-37.984-4.364
	c-13.376,6.018-18.931,18.097-21.859,30.7c-0.025-0.016-0.05-0.033-0.075-0.049c-0.633,3.788-1.404,7.475-2.488,10.876l-0.013-0.002
	c-0.008,0.043-0.019,0.086-0.027,0.129c-1.649,5.132-4.024,9.604-7.741,12.782c-1.558,1.266-3.282,2.323-5.124,3.133
	c-0.617,0.257-1.236,0.486-1.858,0.675l0.018,0.039c-2.604,0.876-5.388,1.271-8.229,1.076c-5.728-0.394-10.704-3.524-16.464-7.151
	c-0.925-0.581-1.85-1.163-2.78-1.735c-0.84-0.516-1.696-1.063-2.563-1.622c-1.529-0.987-3.097-2.029-4.728-3.117
	c-3.985-2.657-8.247-5.497-12.747-8.007c-3.349-1.868-6.831-3.549-10.427-4.836c-4.963,3.71-9.751,7.641-14.369,11.758
	C148.356,123.251,155.942,127.06,163.452,131.764z"/>
<path fill="#5799B6" d="M396.429,453.099l0.68,12.038c1.625-1.019,3.236-2.058,4.832-3.118l-0.52-9.201L396.429,453.099z"/>
<path fill="#5799B6" d="M383.638,453.82l1.046,18.542c1.631-0.876,3.251-1.77,4.856-2.687l-0.91-16.137L383.638,453.82z"/>
<path fill="#5799B6" d="M370.845,454.542l1.355,24.011c1.638-0.746,3.264-1.514,4.878-2.299l-1.241-21.993L370.845,454.542z"/>
<g>
	
		<line fill="#579AB6" stroke="#5799B6" stroke-width="5" stroke-miterlimit="10" x1="326.711" y1="432.007" x2="328.222" y2="458.763"/>
	
		<line fill="#579AB6" stroke="#5799B6" stroke-width="5" stroke-miterlimit="10" x1="313.92" y1="432.729" x2="315.43" y2="459.485"/>
	
		<line fill="#579AB6" stroke="#5799B6" stroke-width="5" stroke-miterlimit="10" x1="301.128" y1="433.45" x2="302.639" y2="460.207"/>
</g>
<g>
	
		<line fill="#579AB6" stroke="#5799B6" stroke-width="5" stroke-miterlimit="10" x1="270.719" y1="441.49" x2="272.229" y2="468.247"/>
	
		<line fill="#579AB6" stroke="#5799B6" stroke-width="5" stroke-miterlimit="10" x1="257.928" y1="442.212" x2="259.438" y2="468.969"/>
	
		<line fill="#579AB6" stroke="#5799B6" stroke-width="5" stroke-miterlimit="10" x1="245.136" y1="442.934" x2="246.646" y2="469.69"/>
</g>
<g>
	
		<line fill="#579AB6" stroke="#5799B6" stroke-width="5" stroke-miterlimit="10" x1="199.962" y1="417.95" x2="201.473" y2="444.708"/>
	
		<line fill="#579AB6" stroke="#5799B6" stroke-width="5" stroke-miterlimit="10" x1="187.171" y1="418.672" x2="188.682" y2="445.43"/>
	
		<line fill="#579AB6" stroke="#5799B6" stroke-width="5" stroke-miterlimit="10" x1="174.379" y1="419.395" x2="175.89" y2="446.151"/>
</g>
<path fill="#5799B6" d="M141.114,427.924l0.931,16.505c1.732,1.522,3.481,3.026,5.262,4.493l-1.201-21.279L141.114,427.924z"/>
<path fill="#5799B6" d="M128.323,428.646l0.157,2.778c1.735,1.817,3.512,3.595,5.31,5.351l-0.474-8.41L128.323,428.646z"/>
<path fill="#579AB6" stroke="#FFFFFF" stroke-width="2" stroke-miterlimit="10" d="M375.75,475.706
	c-5.208-2.42-8.73-7.126-12.811-12.575c-0.654-0.874-1.31-1.749-1.974-2.615c-0.599-0.783-1.204-1.601-1.812-2.433
	c-1.073-1.471-2.164-3.005-3.298-4.604c-2.768-3.908-5.729-8.087-9.031-12.042c-8.334-9.98-18.835-18.531-33.9-17.682
	c-14.644,0.827-24.157,10.114-31.406,20.833c-0.018-0.024-0.035-0.049-0.052-0.073c-1.948,3.311-3.989,6.476-6.22,9.264
	l-0.011-0.007c-0.022,0.037-0.048,0.074-0.072,0.11c-3.378,4.2-7.197,7.525-11.805,9.16c-1.908,0.624-3.896,0.995-5.906,1.09
	c-0.669,0.02-1.329,0.012-1.977-0.034l0.002,0.043c-2.744-0.116-5.486-0.743-8.068-1.943c-5.207-2.42-8.73-7.126-12.81-12.575
	c-0.656-0.873-1.311-1.748-1.975-2.615c-0.599-0.782-1.203-1.6-1.811-2.434c-1.074-1.469-2.164-3.004-3.297-4.604
	c-2.769-3.907-5.731-8.085-9.033-12.04c-8.333-9.981-18.835-18.532-33.899-17.683c-13.729,0.775-22.948,8.987-30.02,18.841
	c-0.109-0.152-4.321,6.015-6.551,8.802l-0.011-0.006c-0.022,0.037-0.048,0.073-0.072,0.11c-1.913,2.378-3.974,4.46-6.232,6.129
	c3.702,3.27,7.518,6.412,11.441,9.423c2.417-2.102,4.559-4.513,6.341-7.203c0.688-0.881,1.354-1.78,2.004-2.692
	c0.101,0.139,13.378-18.597,23.901-19.19c10.634-0.6,18.431,7.402,25.529,16.841c1.691,2.252,3.345,4.583,4.985,6.9
	c1.854,2.615,3.604,5.086,5.421,7.458c0.591,0.773,1.174,1.553,1.758,2.332c0.041,0.055,0.083,0.109,0.124,0.164
	c4.571,6.105,9.751,13.023,18.208,16.952c5.034,2.339,10.521,3.437,16.04,3.275c0.444-0.007,0.893-0.023,1.345-0.049
	c4.722-0.265,8.896-1.4,12.62-3.166c6.241-2.8,11.544-7.271,15.298-12.938c1.188-1.519,2.307-3.097,3.38-4.698
	c0.013,0.016,0.024,0.033,0.036,0.05c6.091-10.281,13.071-19.02,23.596-19.613c10.636-0.6,18.431,7.401,25.528,16.842
	c1.693,2.25,3.345,4.581,4.986,6.898c1.854,2.616,3.604,5.087,5.42,7.46c0.593,0.772,1.177,1.552,1.759,2.33
	c0.042,0.055,0.083,0.11,0.125,0.165c2.847,3.804,5.933,7.923,9.898,11.438c5.323-2.081,10.542-4.37,15.647-6.854
	C376.642,476.076,376.19,475.91,375.75,475.706z"/>
<path fill="#579AB6" stroke="#FFFFFF" stroke-width="2" stroke-miterlimit="10" d="M412.853,454.264
	c5.778-4.385,11.324-9.057,16.623-13.992C422.719,443.303,417.353,448.398,412.853,454.264z"/>
<g>
	
		<line fill="#579AB6" stroke="#5799B6" stroke-width="5" stroke-miterlimit="10" x1="-177.638" y1="-48.384" x2="-176.128" y2="-21.627"/>
	
		<line fill="#579AB6" stroke="#5799B6" stroke-width="5" stroke-miterlimit="10" x1="-190.429" y1="-47.662" x2="-188.92" y2="-20.904"/>
	
		<line fill="#579AB6" stroke="#5799B6" stroke-width="5" stroke-miterlimit="10" x1="-203.222" y1="-46.94" x2="-201.711" y2="-20.183"/>
</g>
<g>
	
		<line fill="#579AB6" stroke="#5799B6" stroke-width="5" stroke-miterlimit="10" x1="-249.852" y1="-69.335" x2="-248.341" y2="-42.579"/>
	
		<line fill="#579AB6" stroke="#5799B6" stroke-width="5" stroke-miterlimit="10" x1="-262.643" y1="-68.613" x2="-261.133" y2="-41.856"/>
	
		<line fill="#579AB6" stroke="#5799B6" stroke-width="5" stroke-miterlimit="10" x1="-275.435" y1="-67.892" x2="-273.924" y2="-41.135"/>
</g>
<g>
	
		<line fill="#579AB6" stroke="#5799B6" stroke-width="5" stroke-miterlimit="10" x1="-305.844" y1="-59.852" x2="-304.334" y2="-33.095"/>
	
		<line fill="#579AB6" stroke="#5799B6" stroke-width="5" stroke-miterlimit="10" x1="-318.635" y1="-59.13" x2="-317.125" y2="-32.373"/>
	
		<line fill="#579AB6" stroke="#5799B6" stroke-width="5" stroke-miterlimit="10" x1="-331.426" y1="-58.408" x2="-329.917" y2="-31.651"/>
</g>
<g>
	
		<line fill="#579AB6" stroke="#5799B6" stroke-width="5" stroke-miterlimit="10" x1="-376.6" y1="-83.392" x2="-375.089" y2="-56.634"/>
	
		<line fill="#579AB6" stroke="#5799B6" stroke-width="5" stroke-miterlimit="10" x1="-389.391" y1="-82.67" x2="-387.881" y2="-55.912"/>
	
		<line fill="#579AB6" stroke="#5799B6" stroke-width="5" stroke-miterlimit="10" x1="-402.183" y1="-81.947" x2="-400.672" y2="-55.19"/>
</g>
<g>
	
		<line fill="#579AB6" stroke="#5799B6" stroke-width="5" stroke-miterlimit="10" x1="-432.953" y1="-73.559" x2="-431.443" y2="-46.801"/>
	
		<line fill="#579AB6" stroke="#5799B6" stroke-width="5" stroke-miterlimit="10" x1="-445.744" y1="-72.836" x2="-444.234" y2="-46.078"/>
	
		<line fill="#579AB6" stroke="#5799B6" stroke-width="5" stroke-miterlimit="10" x1="-458.536" y1="-72.114" x2="-457.026" y2="-45.357"/>
</g>
<path fill="#579AB6" stroke="#FFFFFF" stroke-width="2" stroke-miterlimit="10" d="M-29.992-18.241
	c-1.844-2.407-3.689-5.013-5.472-7.53c-0.959-1.351-1.891-2.656-2.805-3.912c-1.949,3.311-3.988,6.476-6.219,9.264l-0.012-0.008
	c-0.023,0.038-0.05,0.074-0.072,0.111c-3.379,4.199-7.199,7.525-11.806,9.161c-1.908,0.624-3.897,0.993-5.905,1.09
	c-0.668,0.019-1.328,0.012-1.978-0.036l0.003,0.042c-2.745-0.114-5.487-0.743-8.068-1.941c-5.208-2.42-8.73-7.126-12.811-12.575
	c-0.654-0.874-1.31-1.749-1.974-2.615c-0.599-0.783-1.204-1.601-1.812-2.433c-1.073-1.471-2.164-3.005-3.298-4.604
	c-2.768-3.908-5.729-8.087-9.031-12.042c-8.334-9.98-18.835-18.531-33.9-17.682c-14.663,0.828-24.182,10.138-31.434,20.872
	c-0.057-0.078-6.402,9.018-6.402,9.018c-0.023,0.039-0.05,0.074-0.072,0.112c-3.379,4.198-7.199,7.524-11.806,9.16
	c-1.908,0.624-3.897,0.993-5.905,1.091c-0.668,0.018-1.328,0.011-1.978-0.037l0.003,0.043c-2.745-0.115-5.487-0.744-8.068-1.942
	c-5.208-2.42-8.73-7.126-12.811-12.575c-0.654-0.874-1.31-1.749-1.974-2.615c-0.599-0.783-1.204-1.601-1.812-2.433
	c-1.073-1.471-2.164-3.005-3.298-4.604c-2.768-3.908-5.729-8.087-9.031-12.042c-8.334-9.98-18.835-18.531-33.9-17.682
	c-14.644,0.827-24.157,10.114-31.406,20.833c-0.018-0.024-0.035-0.049-0.052-0.073c-1.948,3.311-3.989,6.476-6.22,9.264
	l-0.011-0.007c-0.022,0.037-0.048,0.074-0.072,0.11c-3.378,4.2-7.197,7.525-11.805,9.16c-1.908,0.624-3.896,0.995-5.906,1.09
	c-0.669,0.02-1.329,0.012-1.977-0.034l0.002,0.043c-2.744-0.116-5.486-0.743-8.068-1.943c-5.207-2.42-8.73-7.126-12.81-12.575
	c-0.656-0.873-1.311-1.748-1.975-2.615c-0.599-0.782-1.203-1.6-1.811-2.434c-1.074-1.469-2.164-3.004-3.297-4.604
	c-2.769-3.907-5.731-8.085-9.033-12.04c-8.333-9.981-18.835-18.532-33.899-17.683c-13.729,0.775-22.948,8.987-30.02,18.841
	c-0.109-0.152-4.321,6.015-6.551,8.802l-0.011-0.006c-0.022,0.037-0.048,0.073-0.072,0.11c-3.378,4.2-7.198,7.525-11.806,9.161
	c-1.908,0.623-3.896,0.993-5.906,1.089c-0.668,0.02-1.329,0.012-1.977-0.035l0.002,0.043c-2.745-0.115-5.486-0.743-8.068-1.943
	c-5.207-2.419-8.731-7.124-12.81-12.574c-0.656-0.874-1.311-1.749-1.974-2.616c-0.599-0.782-1.203-1.6-1.812-2.433
	c-1.073-1.469-2.164-3.004-3.297-4.604c-2.769-3.908-5.73-8.087-9.033-12.042c-8.333-9.981-18.835-18.531-33.899-17.681
	c-14.876,0.839-24.463,10.405-31.753,21.337c1.761,2.338,3.479,4.774,5.286,7.346c1.253,1.783,2.474,3.502,3.673,5.143
	c6.092-10.281,13.073-19.019,23.596-19.612c10.634-0.601,18.431,7.4,25.529,16.841c1.692,2.25,3.345,4.581,4.985,6.898
	c1.854,2.615,3.604,5.087,5.421,7.46c0.591,0.772,1.174,1.552,1.758,2.331c0.042,0.055,0.083,0.109,0.124,0.163
	c4.571,6.105,9.751,13.023,18.208,16.953c5.034,2.339,10.521,3.437,16.04,3.275c0.444-0.008,0.893-0.023,1.345-0.048
	c4.723-0.267,8.896-1.401,12.62-3.167c6.24-2.8,11.545-7.271,15.298-12.937c0.688-0.881,1.354-1.78,2.004-2.692
	c0.101,0.139,13.378-18.597,23.901-19.19c10.634-0.6,18.431,7.402,25.529,16.841c1.691,2.252,3.345,4.583,4.985,6.9
	c1.854,2.615,3.604,5.086,5.421,7.458c0.591,0.773,1.174,1.553,1.758,2.332c0.041,0.055,0.083,0.109,0.124,0.164
	c4.571,6.105,9.751,13.023,18.208,16.952c5.034,2.339,10.521,3.437,16.04,3.275c0.444-0.007,0.893-0.023,1.345-0.049
	c4.722-0.265,8.896-1.4,12.62-3.166c6.241-2.8,11.544-7.271,15.298-12.938c1.188-1.519,2.307-3.097,3.38-4.698
	c0.013,0.016,0.024,0.033,0.036,0.05c6.091-10.281,13.071-19.02,23.596-19.613c10.636-0.6,18.431,7.401,25.528,16.842
	c1.693,2.25,3.345,4.581,4.986,6.898c1.854,2.616,3.604,5.087,5.42,7.46c0.593,0.772,1.177,1.552,1.759,2.33
	c0.042,0.055,0.083,0.11,0.125,0.165c4.569,6.104,9.751,13.023,18.208,16.952c5.033,2.339,10.521,3.438,16.039,3.276
	c0.444-0.009,0.892-0.023,1.345-0.049c4.722-0.268,8.896-1.401,12.621-3.167c6.238-2.799,11.544-7.271,15.295-12.937
	c1.199-1.532,16.637-23.543,27.161-24.137c10.636-0.6,18.431,7.401,25.528,16.842c1.693,2.25,3.345,4.581,4.986,6.898
	c1.854,2.616,3.604,5.087,5.42,7.46c0.593,0.772,1.177,1.552,1.759,2.33c0.042,0.055,0.083,0.11,0.125,0.165
	c4.569,6.104,9.751,13.023,18.208,16.952c5.033,2.339,10.521,3.438,16.039,3.275c0.444-0.008,0.892-0.022,1.345-0.049
	c4.722-0.267,8.896-1.4,12.621-3.166c6.238-2.799,11.544-7.271,15.295-12.937c1.334-1.704,2.589-3.476,3.779-5.279
	C-29.493-17.578-29.741-17.912-29.992-18.241z"/>
<g>
	
		<line fill="#579AB6" stroke="#5799B6" stroke-width="5" stroke-miterlimit="10" x1="-108.371" y1="68.613" x2="-89.811" y2="109.873"/>
	
		<line fill="#579AB6" stroke="#5799B6" stroke-width="5" stroke-miterlimit="10" x1="-120.055" y1="73.869" x2="-101.494" y2="115.13"/>
	
		<line fill="#579AB6" stroke="#5799B6" stroke-width="5" stroke-miterlimit="10" x1="-131.74" y1="79.125" x2="-113.178" y2="120.386"/>
</g>
<path fill="#579AB6" stroke="#FFFFFF" stroke-width="2" stroke-miterlimit="10" d="M-32.617,98.268
	c4.313-1.94,7.803-4.494,10.648-7.478c4.822-4.848,8.174-10.924,9.646-17.557c0.635-2.069,1.172-4.173,1.637-6.283
	c-0.352-0.22-0.703-0.442-1.055-0.659c-2.584-1.588-5.24-3.358-7.807-5.07c-1.379-0.918-2.717-1.803-4.02-2.648
	c-0.635,3.789-1.404,7.475-2.488,10.877l-0.014-0.003c-0.008,0.044-0.02,0.087-0.027,0.13c-1.65,5.131-4.025,9.604-7.74,12.781
	c-1.559,1.267-3.283,2.324-5.123,3.134c-0.617,0.256-1.236,0.486-1.859,0.674l0.018,0.039c-2.604,0.876-5.389,1.271-8.229,1.077
	c-5.729-0.394-10.703-3.525-16.465-7.151c-0.924-0.582-1.85-1.164-2.779-1.735c-0.84-0.517-1.697-1.063-2.563-1.622
	c-1.529-0.988-3.098-2.03-4.729-3.117c-3.984-2.657-8.246-5.498-12.746-8.008c-11.355-6.333-24.223-10.555-37.984-4.364
	c-13.588,6.113-19.111,18.479-22.002,31.297c2.48,1.552,4.959,3.211,7.566,4.964c1.809,1.217,3.564,2.383,5.271,3.485
	c2.004-11.78,5.391-22.439,15.004-26.764c9.715-4.37,19.859,0.308,29.867,6.579c2.387,1.494,4.764,3.079,7.127,4.654
	c2.668,1.778,5.188,3.458,7.732,5.023c0.83,0.509,1.654,1.027,2.477,1.546c0.059,0.036,0.117,0.073,0.176,0.109
	c6.453,4.062,13.77,8.666,23.072,9.305c5.537,0.38,11.055-0.56,16.148-2.688C-33.443,98.628-33.031,98.454-32.617,98.268z"/>
<g>
	
		<line fill="#579AB6" stroke="#5799B6" stroke-width="5" stroke-miterlimit="10" x1="-172.037" y1="96.68" x2="-153.477" y2="137.939"/>
	
		<line fill="#579AB6" stroke="#5799B6" stroke-width="5" stroke-miterlimit="10" x1="-183.721" y1="101.936" x2="-165.16" y2="143.196"/>
	
		<line fill="#579AB6" stroke="#5799B6" stroke-width="5" stroke-miterlimit="10" x1="-195.406" y1="107.191" x2="-176.844" y2="148.452"/>
</g>
<path fill="#579AB6" stroke="#FFFFFF" stroke-width="2" stroke-miterlimit="10" d="M-96.283,126.334
	c4.313-1.94,7.803-4.494,10.648-7.478c4.822-4.848,8.174-10.924,9.646-17.557c0.635-2.069,1.172-4.173,1.637-6.283
	c-0.352-0.22-0.703-0.442-1.055-0.659c-2.584-1.588-5.24-3.358-7.807-5.07c-1.379-0.918-2.717-1.803-4.02-2.648
	c-0.635,3.789-1.404,7.475-2.488,10.877l-0.014-0.003c-0.008,0.044-0.02,0.087-0.027,0.13c-1.65,5.131-4.025,9.604-7.74,12.781
	c-1.559,1.267-3.283,2.324-5.123,3.134c-0.617,0.256-1.236,0.486-1.859,0.674l0.018,0.039c-2.604,0.876-5.389,1.271-8.229,1.077
	c-5.729-0.394-10.703-3.525-16.465-7.151c-0.924-0.582-1.85-1.164-2.779-1.735c-0.84-0.517-1.697-1.063-2.563-1.622
	c-1.529-0.988-3.098-2.03-4.729-3.117c-3.984-2.657-8.246-5.498-12.746-8.008c-11.355-6.333-24.223-10.555-37.984-4.364
	c-13.588,6.113-19.111,18.479-22.002,31.297c2.48,1.552,4.959,3.211,7.566,4.964c1.809,1.217,3.564,2.383,5.271,3.485
	c2.004-11.78,5.391-22.439,15.004-26.764c9.715-4.37,19.859,0.308,29.867,6.579c2.387,1.494,4.764,3.079,7.127,4.654
	c2.668,1.778,5.188,3.458,7.732,5.023c0.83,0.509,1.654,1.027,2.477,1.546c0.059,0.036,0.117,0.073,0.176,0.109
	c6.453,4.062,13.77,8.666,23.072,9.305c5.537,0.38,11.055-0.56,16.148-2.688C-97.109,126.694-96.697,126.521-96.283,126.334z"/>
<g>
	
		<line fill="#579AB6" stroke="#5799B6" stroke-width="5" stroke-miterlimit="10" x1="-237.213" y1="124.566" x2="-218.652" y2="165.826"/>
	
		<line fill="#579AB6" stroke="#5799B6" stroke-width="5" stroke-miterlimit="10" x1="-248.897" y1="129.822" x2="-230.336" y2="171.083"/>
	
		<line fill="#579AB6" stroke="#5799B6" stroke-width="5" stroke-miterlimit="10" x1="-260.583" y1="135.078" x2="-242.02" y2="176.338"/>
</g>
<g>
	
		<line fill="#579AB6" stroke="#5799B6" stroke-width="5" stroke-miterlimit="10" x1="-299.384" y1="152.534" x2="-280.823" y2="193.793"/>
	
		<line fill="#579AB6" stroke="#5799B6" stroke-width="5" stroke-miterlimit="10" x1="-311.067" y1="157.79" x2="-292.506" y2="199.05"/>
	
		<line fill="#579AB6" stroke="#5799B6" stroke-width="5" stroke-miterlimit="10" x1="-322.751" y1="163.045" x2="-304.19" y2="204.306"/>
</g>
<g>
	
		<line fill="#579AB6" stroke="#5799B6" stroke-width="5" stroke-miterlimit="10" x1="-364.833" y1="175.913" x2="-346.271" y2="217.173"/>
	
		<line fill="#579AB6" stroke="#5799B6" stroke-width="5" stroke-miterlimit="10" x1="-376.517" y1="181.168" x2="-357.955" y2="222.429"/>
	
		<line fill="#579AB6" stroke="#5799B6" stroke-width="5" stroke-miterlimit="10" x1="-388.201" y1="186.425" x2="-369.639" y2="227.685"/>
</g>
<path fill="#579AB6" stroke="#FFFFFF" stroke-width="3" stroke-miterlimit="10" d="M-289.443,208.704
	c4.314-1.94,7.804-4.495,10.648-7.478c4.823-4.849,8.174-10.924,9.648-17.558c0.633-2.068,1.172-4.172,1.636-6.283
	c-0.353-0.219-0.702-0.441-1.056-0.658c-2.584-1.588-5.238-3.358-7.807-5.071c-1.377-0.918-2.716-1.803-4.02-2.647
	c-0.633,3.788-1.404,7.475-2.488,10.876l-0.013-0.002c-0.008,0.043-0.019,0.086-0.027,0.129c-1.649,5.132-4.024,9.604-7.741,12.782
	c-1.558,1.266-3.282,2.323-5.124,3.133c-0.617,0.257-1.236,0.486-1.858,0.675l0.018,0.039c-2.604,0.876-5.388,1.271-8.229,1.076
	c-5.728-0.394-10.704-3.524-16.464-7.151c-0.925-0.581-1.85-1.163-2.78-1.735c-0.84-0.516-1.696-1.063-2.563-1.622
	c-1.529-0.987-3.097-2.029-4.728-3.117c-3.985-2.657-8.247-5.497-12.747-8.007c-11.355-6.334-24.224-10.555-37.984-4.364
	c-13.588,6.112-19.112,18.479-22.002,31.296c2.481,1.552,4.958,3.212,7.566,4.965c1.809,1.216,3.564,2.383,5.272,3.485
	c2.005-11.781,5.392-22.439,15.005-26.764c9.713-4.37,19.859,0.308,29.867,6.578c2.386,1.495,4.764,3.079,7.126,4.655
	c2.668,1.777,5.187,3.458,7.733,5.022c0.829,0.51,1.652,1.028,2.477,1.547c0.058,0.036,0.117,0.072,0.174,0.108
	c6.455,4.063,13.77,8.666,23.072,9.306c5.538,0.38,11.054-0.561,16.148-2.688C-290.27,209.064-289.856,208.889-289.443,208.704z"/>
<g>
	
		<line fill="#579AB6" stroke="#5799B6" stroke-width="5" stroke-miterlimit="10" x1="-429.209" y1="205.055" x2="-410.648" y2="246.315"/>
	
		<line fill="#579AB6" stroke="#5799B6" stroke-width="5" stroke-miterlimit="10" x1="-440.893" y1="210.311" x2="-422.332" y2="251.572"/>
	
		<line fill="#579AB6" stroke="#5799B6" stroke-width="5" stroke-miterlimit="10" x1="-452.577" y1="215.567" x2="-434.016" y2="256.828"/>
</g>
<path fill="#579AB6" stroke="#FFFFFF" stroke-width="3" stroke-miterlimit="10" d="M-419.269,261.225
	c4.314-1.94,7.804-4.495,10.648-7.478c4.823-4.849,8.174-10.924,9.648-17.558c0.633-2.068,1.172-4.172,1.636-6.283
	c-0.353-0.219-0.702-0.441-1.056-0.658c-2.584-1.588-5.238-3.358-7.807-5.071c-1.377-0.918-2.716-1.803-4.02-2.647
	c-0.633,3.788-1.404,7.475-2.488,10.876l-0.013-0.002c-0.008,0.043-0.019,0.086-0.027,0.129c-1.649,5.132-4.024,9.604-7.741,12.782
	c-1.558,1.266-3.282,2.323-5.124,3.133c-0.617,0.257-1.236,0.486-1.858,0.675l0.018,0.039c-2.604,0.876-5.388,1.271-8.229,1.076
	c-5.728-0.394-10.704-3.524-16.464-7.151c-0.925-0.581-1.85-1.163-2.78-1.735c-0.84-0.516-1.696-1.063-2.563-1.622
	c-1.529-0.987-3.097-2.029-4.728-3.117c-3.985-2.657-8.247-5.497-12.747-8.007c-11.355-6.334-24.224-10.555-37.984-4.364
	c-13.588,6.112-19.112,18.479-22.002,31.296c2.481,1.552,4.958,3.212,7.566,4.965c1.809,1.216,3.564,2.383,5.272,3.485
	c2.005-11.781,5.392-22.439,15.005-26.764c9.713-4.37,19.859,0.308,29.867,6.578c2.386,1.495,4.764,3.079,7.126,4.655
	c2.668,1.777,5.187,3.458,7.733,5.022c0.829,0.51,1.652,1.028,2.477,1.547c0.058,0.036,0.117,0.072,0.174,0.108
	c6.455,4.063,13.77,8.666,23.072,9.306c5.538,0.38,11.054-0.561,16.148-2.688C-420.095,261.585-419.682,261.411-419.269,261.225z"/>
<path fill="#579AB6" stroke="#FFFFFF" stroke-width="3" stroke-miterlimit="10" d="M-351.463,236.603
	c4.313-1.939,7.804-4.494,10.648-7.478c4.823-4.848,8.174-10.923,9.647-17.557c0.634-2.068,1.172-4.172,1.636-6.283
	c-0.352-0.22-0.702-0.442-1.055-0.658c-2.584-1.589-5.239-3.359-7.807-5.071c-1.377-0.918-2.715-1.803-4.02-2.647
	c-0.633,3.788-1.404,7.475-2.488,10.876l-0.013-0.002c-0.008,0.043-0.019,0.086-0.027,0.129c-1.65,5.132-4.025,9.604-7.741,12.781
	c-1.558,1.267-3.282,2.324-5.124,3.134c-0.617,0.256-1.236,0.486-1.858,0.674l0.018,0.039c-2.603,0.876-5.388,1.271-8.229,1.077
	c-5.728-0.394-10.704-3.524-16.464-7.151c-0.925-0.582-1.85-1.164-2.78-1.735c-0.839-0.517-1.696-1.063-2.562-1.622
	c-1.529-0.988-3.097-2.03-4.728-3.117c-3.985-2.657-8.247-5.498-12.747-8.008c-11.355-6.333-24.224-10.554-37.984-4.363
	c-13.587,6.112-19.112,18.478-22.002,31.296c2.48,1.552,4.958,3.211,7.565,4.965c1.81,1.216,3.564,2.382,5.272,3.484
	c2.005-11.78,5.392-22.438,15.005-26.764c9.713-4.369,19.859,0.308,29.867,6.579c2.386,1.495,4.764,3.079,7.126,4.654
	c2.668,1.778,5.187,3.458,7.733,5.023c0.829,0.51,1.653,1.028,2.477,1.547c0.059,0.036,0.117,0.072,0.175,0.108
	c6.454,4.062,13.769,8.666,23.072,9.306c5.537,0.38,11.054-0.561,16.147-2.688C-352.289,236.963-351.876,236.79-351.463,236.603z"/>
<path fill="#579AB6" stroke="#FFFFFF" stroke-width="3" stroke-miterlimit="10" d="M-224.067,182.384
	c4.315-1.94,7.805-4.495,10.649-7.478c4.824-4.849,8.174-10.924,9.648-17.558c0.633-2.068,1.172-4.172,1.637-6.282
	c-0.352-0.22-0.703-0.442-1.057-0.659c-2.584-1.588-5.238-3.358-7.807-5.07c-1.377-0.919-2.715-1.803-4.02-2.648
	c-0.633,3.788-1.404,7.475-2.486,10.876l-0.014-0.002c-0.008,0.044-0.02,0.086-0.027,0.13c-1.65,5.131-4.025,9.604-7.741,12.781
	c-1.559,1.266-3.283,2.323-5.125,3.133c-0.617,0.257-1.236,0.487-1.857,0.675l0.018,0.039c-2.604,0.876-5.389,1.271-8.229,1.076
	c-5.729-0.394-10.705-3.524-16.465-7.15c-0.924-0.582-1.85-1.164-2.779-1.736c-0.84-0.516-1.697-1.063-2.563-1.622
	c-1.529-0.987-3.098-2.029-4.729-3.117c-3.984-2.656-8.247-5.497-12.746-8.007c-11.355-6.333-24.224-10.555-37.984-4.364
	c-13.588,6.112-19.112,18.479-22.002,31.297c2.48,1.551,4.958,3.21,7.566,4.964c1.809,1.216,3.564,2.383,5.272,3.485
	c2.005-11.78,5.392-22.439,15.005-26.764c9.713-4.37,19.859,0.308,29.867,6.579c2.387,1.494,4.764,3.079,7.127,4.654
	c2.668,1.778,5.187,3.458,7.732,5.023c0.83,0.509,1.652,1.027,2.477,1.546c0.059,0.036,0.117,0.072,0.174,0.109
	c6.455,4.062,13.77,8.665,23.072,9.305c5.537,0.38,11.055-0.561,16.148-2.688C-224.893,182.745-224.479,182.57-224.067,182.384z"/>
<path fill="#579AB6" stroke="#FFFFFF" stroke-width="2" stroke-miterlimit="10" d="M-161.459,154.22
	c4.313-1.94,7.803-4.494,10.648-7.478c4.822-4.848,8.174-10.924,9.646-17.557c0.635-2.069,1.172-4.173,1.637-6.283
	c-0.352-0.22-0.703-0.442-1.055-0.659c-2.584-1.588-5.24-3.358-7.807-5.07c-1.379-0.918-2.717-1.803-4.02-2.648
	c-0.635,3.789-1.404,7.475-2.488,10.877l-0.014-0.003c-0.008,0.044-0.02,0.087-0.027,0.13c-1.65,5.131-4.025,9.604-7.74,12.781
	c-1.559,1.267-3.283,2.324-5.123,3.134c-0.617,0.256-1.236,0.486-1.859,0.674l0.018,0.039c-2.604,0.876-5.389,1.271-8.229,1.077
	c-5.729-0.394-10.703-3.525-16.465-7.151c-0.924-0.582-1.85-1.164-2.779-1.735c-0.84-0.517-1.697-1.063-2.563-1.622
	c-1.529-0.988-3.098-2.03-4.729-3.117c-3.984-2.657-8.246-5.498-12.746-8.008c-11.356-6.333-24.223-10.555-37.985-4.364
	c-13.588,6.113-19.111,18.479-22.002,31.297c2.48,1.552,4.958,3.211,7.566,4.964c1.809,1.217,3.564,2.383,5.271,3.485
	c2.004-11.78,5.391-22.439,15.004-26.764c9.715-4.37,19.859,0.308,29.868,6.579c2.387,1.494,4.764,3.079,7.127,4.654
	c2.668,1.778,5.188,3.458,7.732,5.023c0.83,0.509,1.654,1.027,2.477,1.546c0.059,0.036,0.117,0.073,0.176,0.109
	c6.453,4.062,13.77,8.666,23.072,9.305c5.537,0.38,11.055-0.56,16.148-2.688C-162.285,154.581-161.873,154.407-161.459,154.22z"/>
<g>
	
		<line fill="#579AB6" stroke="#5799B6" stroke-width="5" stroke-miterlimit="10" x1="469.135" y1="309.993" x2="473.905" y2="354.983"/>
	
		<line fill="#579AB6" stroke="#5799B6" stroke-width="5" stroke-miterlimit="10" x1="456.395" y1="311.345" x2="461.165" y2="356.335"/>
	
		<line fill="#579AB6" stroke="#5799B6" stroke-width="5" stroke-miterlimit="10" x1="443.653" y1="312.694" x2="448.425" y2="357.687"/>
</g>
<path fill="#579AB6" stroke="#FFFFFF" stroke-width="2" stroke-miterlimit="10" d="M489.12,313.431
	c-8.815-9.559-19.725-17.582-34.73-15.99c-14.816,1.572-23.92,11.598-30.663,22.877c1.873,2.247,3.711,4.596,5.642,7.075
	c1.339,1.72,2.644,3.375,3.922,4.955c5.577-10.568,12.118-19.64,22.601-20.751c10.594-1.123,18.773,6.484,26.327,15.563
	c1.802,2.164,3.566,4.411,5.32,6.645c1.099,1.399,2.164,2.746,3.224,4.065c1.546-5.903,2.841-11.907,3.883-17.998
	C492.888,317.707,491.059,315.533,489.12,313.431z"/>
<g>
	
		<line fill="#579AB6" stroke="#5799B6" stroke-width="5" stroke-miterlimit="10" x1="399.892" y1="316.81" x2="404.662" y2="361.8"/>
	
		<line fill="#579AB6" stroke="#5799B6" stroke-width="5" stroke-miterlimit="10" x1="387.151" y1="318.161" x2="391.922" y2="363.151"/>
	
		<line fill="#579AB6" stroke="#5799B6" stroke-width="5" stroke-miterlimit="10" x1="374.41" y1="319.511" x2="379.182" y2="364.503"/>
</g>
<path fill="#579AB6" stroke="#FFFFFF" stroke-width="2" stroke-miterlimit="10" d="M486.593,337.481
	c-1.024-1.303-2.02-2.561-2.993-3.771c-1.785,3.402-3.665,6.664-5.756,9.56l-0.012-0.008c-0.021,0.04-0.046,0.077-0.067,0.115
	c-3.167,4.36-6.819,7.871-11.339,9.73c-1.876,0.718-3.845,1.185-5.845,1.381c-0.666,0.051-1.326,0.076-1.978,0.061l0.005,0.042
	c-2.747,0.021-5.517-0.472-8.154-1.542c-5.32-2.16-9.07-6.687-13.414-11.929c-0.696-0.841-1.395-1.683-2.1-2.516
	c-0.637-0.752-1.281-1.538-1.929-2.34c-1.146-1.416-2.311-2.895-3.521-4.437c-2.957-3.767-6.12-7.795-9.613-11.582
	c-8.815-9.559-19.725-17.582-34.73-15.99c-14.816,1.571-23.92,11.598-30.663,22.876c1.873,2.248,3.711,4.598,5.642,7.076
	c1.339,1.72,2.644,3.375,3.922,4.955c5.577-10.568,12.118-19.64,22.601-20.751c10.593-1.123,18.773,6.484,26.327,15.563
	c1.802,2.163,3.566,4.41,5.32,6.645c1.98,2.521,3.851,4.902,5.78,7.184c0.631,0.742,1.252,1.492,1.871,2.241
	c0.045,0.053,0.089,0.105,0.133,0.158c4.865,5.871,10.382,12.527,19.021,16.035c5.143,2.087,10.678,2.915,16.182,2.481
	c0.443-0.03,0.889-0.066,1.341-0.115c4.702-0.499,8.814-1.837,12.449-3.784c3.493-1.779,6.638-4.107,9.353-6.858
	c1.997-5.388,3.786-10.876,5.354-16.457C488.705,340.169,487.639,338.814,486.593,337.481z"/>
<g>
	
		<line fill="#579AB6" stroke="#5799B6" stroke-width="5" stroke-miterlimit="10" x1="329.27" y1="322.984" x2="334.041" y2="367.975"/>
	
		<line fill="#579AB6" stroke="#5799B6" stroke-width="5" stroke-miterlimit="10" x1="316.53" y1="324.335" x2="321.301" y2="369.326"/>
	
		<line fill="#579AB6" stroke="#5799B6" stroke-width="5" stroke-miterlimit="10" x1="303.788" y1="325.685" x2="308.561" y2="370.677"/>
</g>
<g>
	
		<line fill="#579AB6" stroke="#5799B6" stroke-width="5" stroke-miterlimit="10" x1="261.478" y1="330.173" x2="266.249" y2="375.163"/>
	
		<line fill="#579AB6" stroke="#5799B6" stroke-width="5" stroke-miterlimit="10" x1="248.738" y1="331.523" x2="253.509" y2="376.515"/>
	
		<line fill="#579AB6" stroke="#5799B6" stroke-width="5" stroke-miterlimit="10" x1="235.998" y1="332.875" x2="240.769" y2="377.866"/>
</g>
<g>
	
		<line fill="#579AB6" stroke="#5799B6" stroke-width="5" stroke-miterlimit="10" x1="192.002" y1="331.979" x2="196.774" y2="376.971"/>
	
		<line fill="#579AB6" stroke="#5799B6" stroke-width="5" stroke-miterlimit="10" x1="179.262" y1="333.33" x2="184.033" y2="378.321"/>
	
		<line fill="#579AB6" stroke="#5799B6" stroke-width="5" stroke-miterlimit="10" x1="166.521" y1="334.682" x2="171.293" y2="379.673"/>
</g>
<path fill="#579AB6" stroke="#FFFFFF" stroke-width="3" stroke-miterlimit="10" d="M277.379,355.517
	c-1.022-1.302-2.018-2.56-2.994-3.769c-1.782,3.401-3.665,6.664-5.755,9.558l-0.011-0.006c-0.021,0.038-0.044,0.076-0.066,0.114
	c-3.167,4.361-6.818,7.87-11.34,9.731c-1.875,0.717-3.842,1.184-5.845,1.379c-0.667,0.052-1.326,0.076-1.976,0.062l0.004,0.043
	c-2.747,0.021-5.516-0.472-8.154-1.543c-5.32-2.16-9.071-6.687-13.414-11.929c-0.698-0.841-1.395-1.682-2.101-2.516
	c-0.637-0.752-1.28-1.538-1.929-2.341c-1.145-1.414-2.31-2.894-3.521-4.436c-2.958-3.768-6.122-7.794-9.615-11.582
	c-8.814-9.559-19.725-17.581-34.729-15.989c-14.816,1.57-23.921,11.598-30.664,22.875c1.874,2.248,3.709,4.598,5.641,7.076
	c1.34,1.719,2.644,3.375,3.922,4.955c5.579-10.568,12.12-19.64,22.602-20.751c10.592-1.123,18.773,6.484,26.327,15.563
	c1.801,2.165,3.566,4.411,5.319,6.646c1.98,2.521,3.85,4.903,5.782,7.184c0.628,0.742,1.25,1.492,1.871,2.242
	c0.044,0.052,0.088,0.104,0.132,0.157c4.866,5.872,10.381,12.527,19.021,16.035c5.144,2.088,10.678,2.914,16.182,2.48
	c0.443-0.029,0.89-0.066,1.34-0.113c4.704-0.499,8.817-1.838,12.449-3.785c6.095-3.104,11.172-7.831,14.642-13.674
	c1.246-1.769,2.414-3.599,3.514-5.46c-0.268-0.318-0.53-0.639-0.799-0.955C281.256,360.454,279.285,357.944,277.379,355.517z"/>
<g>
	
		<line fill="#579AB6" stroke="#5799B6" stroke-width="5" stroke-miterlimit="10" x1="121.749" y1="339.597" x2="126.52" y2="384.587"/>
	
		<line fill="#579AB6" stroke="#5799B6" stroke-width="5" stroke-miterlimit="10" x1="109.009" y1="340.948" x2="113.78" y2="385.939"/>
	
		<line fill="#579AB6" stroke="#5799B6" stroke-width="5" stroke-miterlimit="10" x1="96.269" y1="342.299" x2="101.039" y2="387.29"/>
</g>
<path fill="#579AB6" stroke="#FFFFFF" stroke-width="3" stroke-miterlimit="10" d="M112.339,396.18
	c0.443-0.029,0.89-0.066,1.341-0.113c4.704-0.499,8.816-1.838,12.448-3.785c6.095-3.103,11.172-7.831,14.642-13.674
	c1.246-1.768,2.414-3.599,3.513-5.46c-0.267-0.317-0.529-0.639-0.798-0.955c-1.96-2.313-3.93-4.824-5.836-7.252
	c-1.022-1.302-2.019-2.56-2.994-3.769c-1.783,3.401-3.665,6.664-5.755,9.558l-0.012-0.006c-0.021,0.038-0.044,0.076-0.066,0.114
	c-3.167,4.361-6.819,7.871-11.34,9.731c-1.875,0.717-3.843,1.184-5.845,1.379c-0.667,0.052-1.326,0.076-1.976,0.062l0.004,0.043
	c-2.747,0.021-5.516-0.472-8.154-1.543c-5.32-2.16-9.071-6.687-13.414-11.929c-0.698-0.841-1.396-1.682-2.101-2.516
	c-0.195-0.229-0.394-0.479-0.589-0.715c4.291,10.366,9.365,20.325,15.161,29.797C104.405,396.141,108.379,396.492,112.339,396.18z"
	/>
<path fill="#579AB6" stroke="#FFFFFF" stroke-width="3" stroke-miterlimit="10" d="M77.644,352.341
	c1.729,2.075,3.434,4.249,5.204,6.521c-1.18-3.138-2.287-6.311-3.321-9.517C78.881,350.332,78.249,351.328,77.644,352.341z"/>
<path fill="#579AB6" stroke="#FFFFFF" stroke-width="3" stroke-miterlimit="10" d="M87.207,364.371
	c5.579-10.567,12.12-19.639,22.602-20.751c10.591-1.122,18.773,6.484,26.327,15.563c1.8,2.165,3.566,4.411,5.32,6.645
	c1.98,2.521,3.85,4.903,5.781,7.185c0.629,0.742,1.25,1.492,1.871,2.241c0.044,0.053,0.088,0.105,0.132,0.158
	c4.866,5.871,10.381,12.527,19.021,16.035c5.143,2.088,10.678,2.914,16.181,2.48c0.445-0.03,0.891-0.066,1.342-0.114
	c4.703-0.498,8.816-1.837,12.448-3.785c6.095-3.103,11.172-7.83,14.641-13.673c1.248-1.769,2.415-3.599,3.514-5.46
	c-0.266-0.318-0.529-0.64-0.797-0.954c-1.96-2.315-3.931-4.826-5.837-7.253c-1.022-1.302-2.018-2.56-2.994-3.769
	c-1.782,3.401-3.665,6.664-5.755,9.558l-0.012-0.006c-0.021,0.038-0.045,0.075-0.066,0.114c-3.167,4.361-6.819,7.87-11.34,9.73
	c-1.875,0.718-3.843,1.185-5.845,1.38c-0.667,0.051-1.327,0.076-1.976,0.061l0.004,0.043c-2.746,0.021-5.516-0.472-8.154-1.542
	c-5.32-2.16-9.071-6.687-13.414-11.929c-0.697-0.842-1.395-1.683-2.101-2.516c-0.636-0.753-1.28-1.538-1.928-2.34
	c-1.145-1.416-2.31-2.896-3.521-4.437c-2.958-3.768-6.122-7.795-9.614-11.583c-8.814-9.558-19.726-17.58-34.73-15.989
	c-13.486,1.431-22.232,9.871-28.78,19.88c1.035,3.206,2.142,6.379,3.321,9.517c0.147,0.188,0.288,0.365,0.436,0.556
	C84.624,361.137,85.928,362.791,87.207,364.371z"/>
<path fill="#579AB6" stroke="#FFFFFF" stroke-width="3" stroke-miterlimit="10" d="M347.703,350.895
	c-1.021-1.303-2.018-2.56-2.993-3.77c-1.782,3.401-3.665,6.664-5.754,9.559l-0.012-0.006c-0.021,0.039-0.046,0.075-0.066,0.114
	c-3.168,4.36-6.819,7.87-11.34,9.73c-1.876,0.717-3.844,1.185-5.847,1.379c-0.666,0.052-1.326,0.078-1.975,0.063l0.004,0.042
	c-2.746,0.021-5.517-0.472-8.153-1.543c-5.32-2.16-9.072-6.687-13.415-11.928c-0.696-0.841-1.395-1.683-2.1-2.517
	c-0.637-0.751-1.281-1.538-1.93-2.34c-1.145-1.415-2.31-2.894-3.52-4.437c-2.958-3.766-6.123-7.794-9.615-11.581
	c-8.814-9.559-19.725-17.582-34.729-15.99c-14.816,1.57-23.921,11.598-30.664,22.876c1.874,2.247,3.71,4.596,5.641,7.075
	c1.34,1.72,2.644,3.376,3.922,4.956c5.578-10.568,12.12-19.64,22.602-20.751c10.592-1.124,18.773,6.483,26.327,15.563
	c1.802,2.163,3.566,4.41,5.32,6.645c1.98,2.521,3.85,4.902,5.781,7.184c0.63,0.742,1.25,1.491,1.871,2.241
	c0.045,0.053,0.089,0.104,0.131,0.158c4.867,5.871,10.382,12.526,19.021,16.034c5.143,2.088,10.679,2.915,16.182,2.48
	c0.443-0.028,0.892-0.065,1.341-0.113c4.704-0.499,8.817-1.838,12.449-3.785c6.096-3.103,11.172-7.83,14.642-13.674
	c1.246-1.768,2.414-3.599,3.514-5.459c-0.266-0.318-0.529-0.64-0.798-0.955C351.58,355.832,349.609,353.322,347.703,350.895z"/>
<path fill="#579AB6" stroke="#FFFFFF" stroke-width="2" stroke-miterlimit="10" d="M415.971,343.655
	c-1.023-1.302-2.019-2.56-2.993-3.77c-1.784,3.402-3.665,6.664-5.756,9.559l-0.012-0.007c-0.021,0.039-0.046,0.076-0.066,0.115
	c-3.168,4.36-6.819,7.87-11.34,9.73c-1.876,0.718-3.844,1.185-5.845,1.38c-0.666,0.051-1.326,0.077-1.977,0.061l0.005,0.043
	c-2.747,0.021-5.517-0.473-8.154-1.542c-5.32-2.16-9.07-6.688-13.414-11.929c-0.696-0.842-1.395-1.683-2.1-2.516
	c-0.638-0.753-1.282-1.539-1.93-2.34c-1.145-1.416-2.31-2.896-3.521-4.437c-2.957-3.768-6.121-7.795-9.614-11.583
	c-8.814-9.558-19.724-17.581-34.729-15.99c-14.817,1.572-23.921,11.599-30.664,22.877c1.873,2.247,3.709,4.597,5.642,7.075
	c1.339,1.72,2.644,3.375,3.922,4.955c5.577-10.568,12.119-19.64,22.602-20.751c10.593-1.123,18.773,6.484,26.326,15.563
	c1.802,2.164,3.566,4.411,5.321,6.645c1.98,2.521,3.851,4.903,5.78,7.185c0.63,0.742,1.251,1.491,1.871,2.24
	c0.044,0.053,0.089,0.106,0.133,0.159c4.865,5.871,10.381,12.527,19.021,16.034c5.143,2.088,10.679,2.916,16.182,2.482
	c0.443-0.03,0.89-0.067,1.341-0.115c4.703-0.499,8.815-1.837,12.449-3.785c6.094-3.103,11.173-7.83,14.64-13.673
	c1.248-1.769,2.415-3.6,3.515-5.46c-0.266-0.318-0.53-0.64-0.797-0.955C419.848,348.593,417.876,346.082,415.971,343.655z"/>
<path fill="#579AB6" stroke="#FFFFFF" stroke-width="2" stroke-miterlimit="10" d="M671,241.877"/>
</svg>
