<?xml version="1.0" encoding="utf-8"?>
<!-- Generator: Adobe Illustrator 16.0.2, SVG Export Plug-In . SVG Version: 6.00 Build 0)  -->
<!DOCTYPE svg PUBLIC "-//W3C//DTD SVG 1.1//EN" "http://www.w3.org/Graphics/SVG/1.1/DTD/svg11.dtd">
<svg version="1.1" id="圖層_1" xmlns="http://www.w3.org/2000/svg" xmlns:xlink="http://www.w3.org/1999/xlink" x="0px" y="0px"
	 width="566.93px" height="566.93px" viewBox="0 0 566.93 566.93" enable-background="new 0 0 566.93 566.93" xml:space="preserve">
<path fill="#FFFFFF" d="M283.465,66.614c-117.892,0-213.812,94.077-216.78,211.253C69.653,160.692,165.573,66.615,283.465,66.614
	c119.763,0.001,216.851,97.088,216.851,216.851c-0.001,119.762-97.088,216.852-216.851,216.852
	c119.764,0,216.852-97.088,216.852-216.852C500.316,163.702,403.229,66.614,283.465,66.614z"/>
<path fill="#FFFFFF" d="M66.614,283.465c0,117.893,94.078,213.813,211.254,216.781C160.692,497.276,66.614,401.355,66.614,283.465z"
	/>
<path fill="#FFFFFF" d="M500.315,283.465c0-119.763-97.088-216.85-216.851-216.85c-117.892,0-213.812,94.077-216.78,211.252
	c-0.047,1.86-0.071,3.726-0.071,5.597c0,117.891,94.078,213.812,211.254,216.781c1.86,0.047,3.726,0.07,5.597,0.07
	C403.228,500.316,500.314,403.227,500.315,283.465z"/>
<path fill="#5799B6" d="M463.18,227.898l-4.561,2.051l39.125,86.975c0.484-3.122,0.891-6.269,1.239-9.434L463.18,227.898z"/>
<line fill="none" stroke="#5799B6" stroke-width="5" stroke-miterlimit="10" x1="430.673" y1="242.521" x2="478.689" y2="349.264"/>
<line fill="none" stroke="#5799B6" stroke-width="5" stroke-miterlimit="10" x1="400.441" y1="256.12" x2="448.463" y2="362.859"/>
<g>
	<line fill="none" stroke="#5799B6" stroke-width="5" stroke-miterlimit="10" x1="300.064" y1="301.28" x2="348.08" y2="408.016"/>
	<line fill="none" stroke="#5799B6" stroke-width="5" stroke-miterlimit="10" x1="269.84" y1="314.875" x2="317.857" y2="421.614"/>
	
		<line fill="none" stroke="#5799B6" stroke-width="5" stroke-miterlimit="10" x1="239.614" y1="328.471" x2="287.631" y2="435.211"/>
</g>
<line fill="none" stroke="#5799B6" stroke-width="5" stroke-miterlimit="10" x1="130.748" y1="361.76" x2="178.768" y2="468.498"/>
<path fill="#5799B6" d="M98.241,376.379l22.855,50.805c3.346,3.777,6.82,7.437,10.418,10.971l-28.714-63.826L98.241,376.379z"/>
<path fill="#579AB6" stroke="#FFFFFF" stroke-width="3" stroke-miterlimit="10" d="M175.811,401.516
	c6.173,3.868,12.325,7.967,18.435,12.043c6.902,4.6,13.418,8.946,20.005,12.993c2.145,1.318,4.274,2.654,6.408,4.002
	c0.15,0.095,0.303,0.188,0.451,0.275c16.698,10.512,35.623,22.418,59.687,24.078c14.327,0.981,28.597-1.455,41.774-6.955
	c1.07-0.433,2.142-0.885,3.21-1.362c11.16-5.02,20.188-11.629,27.547-19.35c12.476-12.543,21.145-28.26,24.959-45.422
	c1.637-5.352,3.031-10.793,4.231-16.254c-0.913-0.566-1.815-1.144-2.731-1.703c-6.686-4.107-13.551-8.685-20.197-13.119
	c-3.562-2.375-7.024-4.664-10.398-6.844c-1.639,9.799-3.633,19.336-6.438,28.136l-0.033-0.005c-0.021,0.111-0.049,0.223-0.069,0.334
	c-4.267,13.275-10.409,24.844-20.025,33.066c-4.031,3.273-8.49,6.012-13.256,8.104c-1.596,0.664-3.197,1.258-4.808,1.746l0.048,0.1
	c-6.736,2.269-13.939,3.291-21.29,2.785c-14.818-1.022-27.691-9.118-42.592-18.501c-2.394-1.503-4.786-3.009-7.192-4.484
	c-2.173-1.339-4.387-2.75-6.63-4.195c-3.955-2.555-8.011-5.25-12.231-8.064c-10.309-6.874-21.335-14.221-32.977-20.713
	c-29.375-16.387-62.666-27.311-98.264-11.291c-1.812,0.814-3.554,1.684-5.257,2.582c4.02,11.784,9.025,23.11,14.918,33.884
	c1.729-1.049,3.536-2.019,5.45-2.879C123.673,373.197,149.921,385.298,175.811,401.516z"/>
<path fill="#579AB6" stroke="#FFFFFF" stroke-width="3" stroke-miterlimit="10" d="M222.071,437.744
	c-0.91-0.572-1.815-1.146-2.729-1.701c-6.685-4.111-13.554-8.691-20.197-13.121c-3.563-2.373-7.023-4.662-10.4-6.844
	c-1.637,9.795-3.632,19.338-6.436,28.137l-0.034-0.006c-0.02,0.111-0.049,0.223-0.069,0.334
	c-2.883,8.966-6.626,17.148-11.711,24.051c10.707,6.547,22.023,12.193,33.847,16.829c6.39-9.529,10.996-20.162,13.497-31.429
	C219.479,448.648,220.871,443.201,222.071,437.744z"/>
<path fill="#579AB6" stroke="#FFFFFF" stroke-width="3" stroke-miterlimit="10" d="M491.757,337.339
	c-4.033,3.279-8.492,6.011-13.258,8.104c-1.596,0.664-3.197,1.261-4.804,1.75l0.047,0.097c-6.737,2.267-13.942,3.289-21.288,2.784
	c-14.821-1.02-27.694-9.112-42.595-18.493c-2.393-1.506-4.786-3.013-7.19-4.492c-2.172-1.334-4.389-2.748-6.63-4.194
	c-3.955-2.556-8.014-5.25-12.233-8.064c-10.307-6.867-21.336-14.221-32.973-20.714c-29.377-16.383-62.668-27.305-98.266-11.29
	c-35.152,15.813-49.442,47.807-56.919,80.97c6.416,4.013,12.826,8.304,19.573,12.841c4.68,3.146,9.22,6.164,13.638,9.012
	c5.188-30.471,13.949-58.045,38.819-69.235c25.127-11.308,51.375,0.795,77.266,17.021c6.176,3.864,12.324,7.965,18.438,12.041
	c6.901,4.594,13.419,8.944,20.003,12.989c2.146,1.315,4.273,2.658,6.407,3.999c0.153,0.094,0.304,0.188,0.451,0.282
	c16.699,10.508,35.623,22.417,59.687,24.071c8.477,0.581,16.935-0.043,25.16-1.781c8.275-15.58,14.703-32.288,18.999-49.835
	C493.332,335.933,492.561,336.651,491.757,337.339z"/>
<path fill="#579AB6" stroke="#FFFFFF" stroke-width="2" stroke-miterlimit="10" d="M414.525,209.966
	c-35.151,15.815-49.439,47.806-56.919,80.97c6.416,4.015,12.825,8.307,19.572,12.842c4.682,3.146,9.221,6.164,13.637,9.012
	c5.186-30.471,13.946-58.046,38.815-69.238c22.427-10.087,45.736-1.534,68.895,11.952c-2.063-16.024-5.875-31.499-11.238-46.229
	C464.633,200.875,440.181,198.426,414.525,209.966z"/>
<path fill="#5799B6" d="M451.07,163.246l-15.391-34.212c-3.055-3.011-6.196-5.934-9.425-8.76l20.255,45.024L451.07,163.246z"/>
<path fill="#579AB6" stroke="#FFFFFF" stroke-width="2" stroke-miterlimit="10" d="M357.937,92.345
	c6.415,4.02,12.827,8.307,19.571,12.842c4.682,3.153,9.222,6.169,13.638,9.016c0.986-5.796,2.103-11.487,3.434-16.98
	c-10.683-6.387-21.96-11.877-33.729-16.375C359.773,84.649,358.807,88.488,357.937,92.345z"/>
<g>
	
		<line fill="none" stroke="#5799B6" stroke-width="5" stroke-miterlimit="10" x1="292.616" y1="102.477" x2="340.633" y2="209.217"/>
	<line fill="none" stroke="#5799B6" stroke-width="5" stroke-miterlimit="10" x1="262.39" y1="116.073" x2="310.406" y2="222.817"/>
	<line fill="none" stroke="#5799B6" stroke-width="5" stroke-miterlimit="10" x1="232.158" y1="129.673" x2="280.18" y2="236.411"/>
</g>
<line fill="none" stroke="#5799B6" stroke-width="5" stroke-miterlimit="10" x1="131.781" y1="174.832" x2="179.797" y2="281.568"/>
<line fill="none" stroke="#5799B6" stroke-width="5" stroke-miterlimit="10" x1="101.557" y1="188.428" x2="149.574" y2="295.166"/>
<path fill="#5799B6" d="M121.628,307.738l-43-95.586c-0.809,2.325-1.591,4.662-2.323,7.022l40.763,90.615L121.628,307.738z"/>
<path fill="#579AB6" stroke="#FFFFFF" stroke-width="3" stroke-miterlimit="10" d="M154.288,321.505
	c1.07-0.432,2.142-0.886,3.21-1.362c11.16-5.02,20.188-11.629,27.547-19.35c12.476-12.543,21.145-28.26,24.959-45.422
	c1.637-5.351,3.031-10.792,4.232-16.254c-0.914-0.566-1.816-1.143-2.732-1.703c-6.685-4.107-13.551-8.684-20.197-13.119
	c-3.562-2.375-7.025-4.664-10.399-6.844c-1.638,9.799-3.632,19.336-6.437,28.136l-0.033-0.005c-0.021,0.111-0.049,0.223-0.07,0.334
	c-4.266,13.275-10.409,24.844-20.025,33.066c-4.031,3.274-8.49,6.012-13.256,8.105c-1.596,0.664-3.197,1.258-4.807,1.746
	l0.047,0.101c-6.736,2.268-13.939,3.291-21.289,2.784c-14.818-1.022-27.691-9.118-42.592-18.501
	c-1.796-1.127-3.594-2.247-5.395-3.363c-0.279,4.503-0.438,9.038-0.438,13.611c0,10.378,0.746,20.58,2.155,30.569
	c12.749,7.154,27.002,13.271,43.745,14.426C126.841,329.441,141.111,327.005,154.288,321.505z"/>
<path fill="#579AB6" stroke="#FFFFFF" stroke-width="3" stroke-miterlimit="10" d="M99.395,189.966
	c25.127-11.307,51.375,0.795,77.265,17.02c6.176,3.865,12.325,7.965,18.438,12.041c6.901,4.595,13.419,8.945,20.003,12.99
	c2.146,1.316,4.273,2.658,6.407,3.999c0.153,0.093,0.304,0.187,0.451,0.282c16.699,10.508,35.623,22.417,59.687,24.072
	c14.325,0.982,28.6-1.451,41.774-6.953c1.067-0.43,2.139-0.886,3.205-1.365c11.162-5.021,20.19-11.628,27.549-19.349
	c12.479-12.544,21.146-28.26,24.959-45.422c1.637-5.352,3.031-10.793,4.235-16.252c-0.911-0.568-1.819-1.14-2.735-1.705
	c-6.685-4.107-13.551-8.684-20.195-13.112c-3.563-2.377-7.023-4.664-10.4-6.851c-1.637,9.799-3.631,19.342-6.431,28.135
	l-0.036-0.004c-0.021,0.113-0.053,0.222-0.069,0.336c-4.269,13.277-10.412,24.846-20.027,33.064
	c-4.032,3.279-8.491,6.01-13.258,8.104c-1.596,0.665-3.197,1.261-4.804,1.751l0.047,0.096c-6.737,2.266-13.941,3.289-21.288,2.784
	c-14.821-1.019-27.694-9.112-42.595-18.493c-2.392-1.506-4.786-3.012-7.19-4.492c-2.172-1.334-4.389-2.748-6.63-4.195
	c-3.955-2.555-8.014-5.25-12.233-8.064c-10.307-6.867-21.336-14.221-32.973-20.714c-21.184-11.814-44.404-20.784-69.056-18.865
	c-12.907,16.27-23.525,34.434-31.374,54.01C86.814,197.459,92.48,193.078,99.395,189.966z"/>
<path fill="#579AB6" stroke="#FFFFFF" stroke-width="2" stroke-miterlimit="10" d="M446.131,150.77
	c-14.82-1.018-27.688-9.115-42.594-18.496c-2.393-1.506-4.786-3.011-7.19-4.489c-2.173-1.336-4.39-2.749-6.63-4.196
	c-3.955-2.557-8.014-5.252-12.233-8.064c-10.307-6.87-21.331-14.224-32.974-20.716c-29.379-16.383-62.665-27.305-98.268-11.29
	c-35.151,15.815-49.439,47.806-56.919,80.969c6.416,4.015,12.826,8.307,19.573,12.842c4.681,3.147,9.22,6.164,13.636,9.012
	c5.186-30.471,13.947-58.046,38.816-69.238c25.132-11.305,51.375,0.796,77.268,17.02c6.176,3.866,12.324,7.966,18.438,12.041
	c6.901,4.596,13.421,8.946,20.002,12.991c2.147,1.316,4.279,2.657,6.408,3.999c0.152,0.094,0.303,0.189,0.456,0.283
	c16.692,10.508,35.623,22.419,59.688,24.071c11.027,0.756,22.025-0.518,32.516-3.653c-6.08-11.738-13.203-22.847-21.245-33.209
	C451.999,150.917,449.077,150.971,446.131,150.77z"/>
</svg>
