<?xml version="1.0" encoding="utf-8"?>
<!-- Generator: Adobe Illustrator 16.0.2, SVG Export Plug-In . SVG Version: 6.00 Build 0)  -->
<!DOCTYPE svg PUBLIC "-//W3C//DTD SVG 1.1//EN" "http://www.w3.org/Graphics/SVG/1.1/DTD/svg11.dtd">
<svg version="1.1" id="圖層_1" xmlns="http://www.w3.org/2000/svg" xmlns:xlink="http://www.w3.org/1999/xlink" x="0px" y="0px"
	 width="340.158px" height="340.158px" viewBox="0 0 340.158 340.158" enable-background="new 0 0 340.158 340.158"
	 xml:space="preserve">
<path fill="#444444" d="M157.674,282.12c-60.945,0-110.352-49.405-110.352-110.354c0-60.945,49.407-110.354,110.352-110.354
	c19.927,0,38.613,5.272,54.769,14.543l13.721-24.01c-20.182-11.565-43.564-18.17-68.486-18.17
	c-76.195,0-137.99,61.796-137.99,137.993c0,76.192,61.795,137.987,137.99,137.987c50.686,0,94.99-27.323,118.971-68.06
	l-23.811-14.002C233.646,260.271,198.211,282.12,157.674,282.12z"/>
<path fill="#444444" stroke="#444444" stroke-miterlimit="10" d="M252.836,227.696l-20.81-12.227
	c4.896-8.285,8.412-17.467,10.308-27.229c1.031-5.336,1.601-10.838,1.601-16.479c0-21.548-7.927-41.23-20.981-56.339
	c-6.379-7.377-13.957-13.683-22.474-18.552l11.965-20.919l13.72-24.01L238.467,30.4c48.979,28.034,82.007,80.843,82.007,141.365
	c0,30.104-8.163,58.309-22.422,82.485l-21.4-12.558L252.836,227.696z"/>
</svg>
